<?xml version="1.0" encoding="UTF-8" standalone="no"?>
<!-- Created with Inkscape (http://www.inkscape.org/) -->

<svg
   width="50mm"
   height="50mm"
   viewBox="0 0 50 50"
   version="1.1"
   id="svg1"
   xml:space="preserve"
   inkscape:version="1.4.2 (ebf0e940, 2025-05-08)"
   sodipodi:docname="icon128.svg"
   inkscape:export-filename="../prj-priv/github-pr-authorizers-extension/icons/icon16.png"
   inkscape:export-xdpi="8.1280003"
   inkscape:export-ydpi="8.1280003"
   xmlns:inkscape="http://www.inkscape.org/namespaces/inkscape"
   xmlns:sodipodi="http://sodipodi.sourceforge.net/DTD/sodipodi-0.dtd"
   xmlns="http://www.w3.org/2000/svg"
   xmlns:svg="http://www.w3.org/2000/svg"><sodipodi:namedview
     id="namedview1"
     pagecolor="#ffffff"
     bordercolor="#000000"
     borderopacity="0.25"
     inkscape:showpageshadow="2"
     inkscape:pageopacity="0.0"
     inkscape:pagecheckerboard="0"
     inkscape:deskcolor="#d1d1d1"
     inkscape:document-units="mm"
     inkscape:zoom="2.3984582"
     inkscape:cx="64.207915"
     inkscape:cy="62.123243"
     inkscape:window-width="2560"
     inkscape:window-height="1387"
     inkscape:window-x="1512"
     inkscape:window-y="25"
     inkscape:window-maximized="0"
     inkscape:current-layer="layer1" /><defs
     id="defs1"><rect
       x="222.65948"
       y="607.19305"
       width="109.94606"
       height="73.042648"
       id="rect48" /><filter
       inkscape:collect="always"
       style="color-interpolation-filters:sRGB"
       id="filter47"
       x="-0.04627917"
       y="-0.05834098"
       width="1.0925263"
       height="1.1164828"><feGaussianBlur
         inkscape:collect="always"
         stdDeviation="0.18100243"
         id="feGaussianBlur47" /></filter></defs><g
     inkscape:groupmode="layer"
     id="layer2"
     inkscape:label="Layer 2"
     transform="translate(-58.109628,-114.01699)"><path
       style="fill:#ffffff;stroke:#000000;stroke-width:0.567125;stroke-linecap:round;stroke-linejoin:round;stroke-dasharray:none;stroke-opacity:1"
       d="m 65.219356,150.33241 c 5.628188,-4.06682 9.951744,-11.26128 16.999748,-12.12085 3.874081,-0.4124 7.899645,-0.76678 11.714531,0.27773 3.393672,1.18575 6.288485,3.72331 9.661155,4.97107 -2.95271,0.22523 -5.652485,1.93951 -7.30805,4.79313 -3.091202,3.18043 -7.397367,3.91673 -11.329118,4.69808 -3.905513,0.61747 -7.77761,-0.81392 -11.021874,-3.27795 -2.748909,-1.45368 -6.123043,-1.00003 -8.716392,0.65879 z"
       id="path3" /><path
       style="fill:none;stroke:#000000;stroke-width:0.567125;stroke-linecap:round;stroke-linejoin:round;stroke-dasharray:none;stroke-opacity:1"
       d="m 74.065113,141.28217 c -0.996717,1.10519 -3.526531,0.22478 -3.0437,-1.65553"
       id="path4" /><path
       style="fill:none;stroke:#000000;stroke-width:0.567125;stroke-linecap:round;stroke-linejoin:round;stroke-dasharray:none;stroke-opacity:1"
       d="m 76.062543,140.28886 c -1.6147,0.29254 -5.358338,-2.54005 -2.663238,-4.08364"
       id="path5" /><path
       style="fill:none;stroke:#000000;stroke-width:0.567125;stroke-linecap:round;stroke-linejoin:round;stroke-dasharray:none;stroke-opacity:1"
       d="m 78.345319,139.62664 c -1.697246,-0.18615 -4.533477,-4.14754 -1.426736,-4.74581"
       id="path6" /><path
       style="fill:none;stroke:#000000;stroke-width:0.567125;stroke-linecap:round;stroke-linejoin:round;stroke-dasharray:none;stroke-opacity:1"
       d="m 81.198789,138.63333 c -1.647434,0.27483 -5.26177,-2.1346 -2.758353,-3.9733"
       id="path7" /><path
       style="fill:none;stroke:#000000;stroke-width:0.567125;stroke-linecap:round;stroke-linejoin:round;stroke-dasharray:none;stroke-opacity:1"
       d="m 83.481568,137.97111 c -2.094239,0.83934 -6.014824,-2.99845 -3.043704,-4.85622"
       id="path8" /><path
       style="fill:none;stroke:#000000;stroke-width:0.567125;stroke-linecap:round;stroke-linejoin:round;stroke-dasharray:none;stroke-opacity:1"
       d="m 84.432723,138.30221 c -1.983929,-2.27104 -0.308542,-5.62066 1.521851,-7.17395"
       id="path9" /><path
       style="fill:none;stroke:#000000;stroke-width:0.567125;stroke-linecap:round;stroke-linejoin:round;stroke-dasharray:none;stroke-opacity:1"
       d="m 85.574112,136.9778 c 2.390818,-0.88716 5.133263,-3.37233 5.206157,-6.41297 l -0.173249,-0.10886 -0.277163,0.0101"
       id="path10" /><path
       style="fill:none;stroke:#000000;stroke-width:0.567125;stroke-linecap:round;stroke-linejoin:round;stroke-dasharray:none;stroke-opacity:1"
       d="m 88.808044,136.86742 c 2.294131,-0.83295 5.376952,-3.14617 4.755781,-6.40138"
       id="path11" /><path
       style="fill:none;stroke:#000000;stroke-width:0.567125;stroke-linecap:round;stroke-linejoin:round;stroke-dasharray:none;stroke-opacity:1"
       d="m 90.995705,136.9778 c 2.2256,0.0239 5.655549,-3.73526 4.375356,-5.4081"
       id="path12" /><path
       style="fill:none;stroke:#000000;stroke-width:0.567125;stroke-linecap:round;stroke-linejoin:round;stroke-dasharray:none;stroke-opacity:1"
       d="m 92.707788,137.41927 c 2.266203,0.91827 6.930496,-3.96953 4.361345,-4.82545 l -0.244615,0.3342 -0.121876,0.40761"
       id="path13" /><path
       style="fill:none;stroke:#000000;stroke-width:0.567125;stroke-linecap:round;stroke-linejoin:round;stroke-dasharray:none;stroke-opacity:1"
       d="m 96.036834,138.19185 c 1.681786,1.24366 5.997386,-4.65704 3.329048,-3.86291"
       id="path14" /><path
       style="fill:none;stroke:#000000;stroke-width:0.567125;stroke-linecap:round;stroke-linejoin:round;stroke-dasharray:none;stroke-opacity:1"
       d="m 97.083106,139.07479 c 2.579118,1.88863 5.916294,-0.3179 6.943444,-3.31105"
       id="path15" /><path
       style="fill:none;stroke:#000000;stroke-width:0.567125;stroke-linecap:round;stroke-linejoin:round;stroke-dasharray:none;stroke-opacity:1"
       d="m 98.985418,140.73032 c 2.369052,1.14886 5.811782,0.11724 6.753212,-2.86959"
       id="path16" /><path
       style="fill:none;stroke:#000000;stroke-width:0.567125;stroke-linecap:round;stroke-linejoin:round;stroke-dasharray:none;stroke-opacity:1"
       d="m 102.40958,142.16512 c 2.17053,0.66811 4.49642,-0.87285 5.51671,-3.09033"
       id="path17" /><path
       style="fill:none;stroke:#000000;stroke-width:0.567125;stroke-linecap:round;stroke-linejoin:round;stroke-dasharray:none;stroke-opacity:1"
       d="m 73.018842,149.33908 c -1.943158,-0.37583 -2.897923,2.0354 -4.185084,3.20066"
       id="path18" /><path
       style="fill:none;stroke:#000000;stroke-width:0.567125;stroke-linecap:round;stroke-linejoin:round;stroke-dasharray:none;stroke-opacity:1"
       d="m 75.016272,150.22204 c -1.146095,0.61487 -3.353451,2.17466 -1.99743,3.8629"
       id="path19" /><path
       style="fill:none;stroke:#000000;stroke-width:0.567125;stroke-linecap:round;stroke-linejoin:round;stroke-dasharray:none;stroke-opacity:1"
       d="m 76.926579,151.42217 c -0.961398,1.51198 -2.30766,3.03625 -2.18766,5.07697"
       id="path20" /><path
       style="fill:none;stroke:#000000;stroke-width:0.567125;stroke-linecap:round;stroke-linejoin:round;stroke-dasharray:none;stroke-opacity:1"
       d="m 81.111668,152.85234 c -0.853905,1.81309 -1.90383,3.49306 -3.043702,5.07695"
       id="path21" /><path
       style="fill:none;stroke:#000000;stroke-width:0.567125;stroke-linecap:round;stroke-linejoin:round;stroke-dasharray:none;stroke-opacity:1"
       d="m 85.098533,151.87757 c -1.79159,1.28309 -3.108008,4.37823 -1.807198,6.62212"
       id="path22" /><path
       style="fill:none;stroke:#000000;stroke-width:0.567125;stroke-linecap:round;stroke-linejoin:round;stroke-dasharray:none;stroke-opacity:1"
       d="m 85.859459,152.98126 c 2.325283,1.30084 1.308698,5.2646 -0.665807,6.29101"
       id="path23" /><path
       style="fill:none;stroke:#000000;stroke-width:0.567125;stroke-linecap:round;stroke-linejoin:round;stroke-dasharray:none;stroke-opacity:1"
       d="m 88.903159,152.65015 c 2.308321,-1.28988 2.759243,2.87629 1.426735,4.19401"
       id="path24" /><path
       style="fill:none;stroke:#000000;stroke-width:0.567125;stroke-linecap:round;stroke-linejoin:round;stroke-dasharray:none;stroke-opacity:1"
       d="m 90.90059,151.54645 c 2.623236,-0.10101 2.466869,3.94481 1.71208,5.84955"
       id="path25" /><path
       style="fill:none;stroke:#000000;stroke-width:0.567125;stroke-linecap:round;stroke-linejoin:round;stroke-dasharray:none;stroke-opacity:1"
       d="m 93.183365,151.54645 c 2.342654,-2.25946 4.709028,3.04714 2.853469,4.85623"
       id="path26" /><path
       style="fill:none;stroke:#000000;stroke-width:0.567125;stroke-linecap:round;stroke-linejoin:round;stroke-dasharray:none;stroke-opacity:1"
       d="m 95.846602,148.78724 c 2.485894,-0.65033 5.717638,3.13212 3.614401,5.62881"
       id="path27" /><path
       style="fill:none;stroke:#000000;stroke-width:0.567125;stroke-linecap:round;stroke-linejoin:round;stroke-dasharray:none;stroke-opacity:1"
       d="m 96.702642,147.90429 c 2.399517,-0.98234 6.223298,2.29465 4.280208,5.18733"
       id="path28" /><path
       style="fill:none;stroke:#000000;stroke-width:0.567125;stroke-linecap:round;stroke-linejoin:round;stroke-dasharray:none;stroke-opacity:1"
       d="m 99.556114,145.14508 c 2.540876,-1.15814 7.285396,1.312 6.087406,4.85622"
       id="path29" /><path
       style="display:inline;fill:#000000;stroke:#000000;stroke-width:0.186991;stroke-linecap:round;stroke-linejoin:round;stroke-dasharray:none;stroke-opacity:1"
       d="m 85.315389,146.7472 c -0.898582,-0.12469 -2.22452,-0.75058 -2.659597,-1.25542 -0.315896,-0.36655 -0.462312,-0.89227 -0.398634,-1.43133 0.102226,-0.86543 0.805212,-2.00289 1.562369,-2.52796 0.404963,-0.28084 1.134907,-0.54975 1.492258,-0.54975 0.157048,0 0.124409,0.0405 -0.185227,0.22982 -0.564709,0.3453 -1.037058,0.76909 -1.470317,1.31917 -0.438695,0.55697 -0.537681,0.7847 -0.437514,1.00651 0.13141,0.29099 0.355906,0.15425 1.019811,-0.62115 0.539618,-0.63025 0.781635,-0.84118 1.302731,-1.13534 0.848685,-0.47908 1.474427,-0.65521 2.149408,-0.60494 0.977515,0.0728 1.617377,0.6688 1.913876,1.7827 0.125516,0.47154 0.131621,0.59824 0.05077,1.05352 -0.172519,0.97143 -0.686538,1.70359 -1.551852,2.21045 -0.763117,0.447 -1.858349,0.65272 -2.788075,0.52372 z"
       id="path31" /></g><g
     inkscape:groupmode="layer"
     id="layer3"
     inkscape:label="Layer 3"
     style="display:inline"
     transform="translate(-58.109628,-114.01699)"><path
       style="fill:#ff6600;stroke:#000000;stroke-width:0.567125;stroke-linecap:round;stroke-linejoin:round;stroke-dasharray:none;stroke-opacity:1"
       id="path30"
       d="m 86.766448,137.75406 c -0.196632,0.0147 -0.392539,0.0377 -0.588559,0.0606 -0.259939,0.0299 -0.520636,0.0497 -0.7814,0.0669 -0.281274,0.0194 -0.563085,0.0249 -0.844369,0.0436 -0.288241,0.0222 -0.576465,0.0428 -0.864022,0.075 -0.277561,0.0281 -0.554533,0.0646 -0.830179,0.11176 -0.269242,0.0407 -0.53529,0.10264 -0.801506,0.16348 -0.288494,0.0689 -0.573698,0.15581 -0.856804,0.24984 -0.254895,0.0779 -0.499619,0.1922 -0.744246,0.30453 -0.214169,0.0979 -0.41796,0.22193 -0.618769,0.35164 -0.177705,0.11776 -0.343289,0.25559 -0.504299,0.40144 -0.158275,0.14424 -0.307828,0.30152 -0.450889,0.46567 -0.134067,0.15841 -0.247318,0.33699 -0.354034,0.52058 -0.113599,0.18086 -0.198899,0.38086 -0.282836,0.58134 -0.08255,0.19451 -0.146423,0.39821 -0.202165,0.60481 -0.0461,0.20145 -0.09664,0.40147 -0.14022,0.6037 -0.04303,0.20408 -0.07211,0.41155 -0.09736,0.61945 -0.0187,0.21318 -0.04828,0.42492 -0.06731,0.63798 -0.01587,0.21576 -0.02222,0.43223 -0.02853,0.64858 -0.0057,0.22067 0.0024,0.44223 0.01934,0.66207 0.01372,0.21521 0.04715,0.42672 0.08923,0.63653 0.04567,0.19605 0.09602,0.3907 0.15732,0.58097 0.05892,0.18547 0.129869,0.36515 0.204793,0.54252 0.08013,0.18723 0.172762,0.36601 0.268185,0.54311 0.103403,0.17516 0.203544,0.35238 0.309721,0.52531 0.114231,0.17494 0.235087,0.34422 0.363767,0.50509 0.126247,0.1598 0.265935,0.30357 0.400837,0.45309 0.137183,0.1447 0.272104,0.29243 0.412333,0.43317 0.136606,0.14545 0.275103,0.28851 0.418308,0.42519 0.154529,0.14587 0.315477,0.28234 0.476869,0.41774 0.16581,0.14082 0.343365,0.26047 0.517949,0.38554 0.183197,0.12833 0.372042,0.2453 0.560215,0.36337 0.195309,0.12402 0.398981,0.22756 0.603154,0.32982 0.218414,0.11328 0.445396,0.19949 0.673046,0.28343 0.262325,0.0967 0.530855,0.16658 0.801159,0.2252 0.293207,0.0604 0.589327,0.098 0.885494,0.13213 0.292976,0.0388 0.58776,0.0436 0.882247,0.0477 0.289445,-0.007 0.579016,-0.0178 0.867973,-0.039 0.326738,-0.0217 0.651005,-0.0741 0.975408,-0.12208 0.327583,-0.0517 0.653896,-0.11224 0.980043,-0.17476 0.296829,-0.0609 0.592521,-0.12659 0.885114,-0.2109 0.314503,-0.0899 0.627698,-0.18616 0.9369,-0.29829 0.318054,-0.11204 0.628745,-0.24867 0.933981,-0.40088 0.281679,-0.14839 0.554221,-0.3193 0.821064,-0.50059 0.236551,-0.16534 0.465716,-0.34467 0.686394,-0.53725 0.210927,-0.18808 0.404916,-0.39999 0.599337,-0.6102 0.176719,-0.1922 0.339179,-0.40007 0.495463,-0.61445 0.139759,-0.191 0.256335,-0.40069 0.367606,-0.61465 0.09461,-0.20401 0.173684,-0.41727 0.243829,-0.634 0.06614,-0.21342 0.128874,-0.42787 0.181492,-0.64634 0.05903,-0.21256 0.09157,-0.43311 0.120977,-0.65329 0.02641,-0.21814 0.0504,-0.43705 0.05869,-0.6572 0.01079,-0.21361 0.0233,-0.4271 0.03366,-0.64074 0.0098,-0.20707 0.01657,-0.41431 0.02227,-0.62158 0.01113,-0.21277 -1.9e-4,-0.42545 -0.0097,-0.63795 -0.01053,-0.21683 -0.03029,-0.43352 -0.05662,-0.64855 -0.02287,-0.21523 -0.06313,-0.42632 -0.110627,-0.63574 -0.05046,-0.19995 -0.121091,-0.39269 -0.197577,-0.58093 -0.0788,-0.19079 -0.173088,-0.37026 -0.278292,-0.5427 -0.119164,-0.19772 -0.261652,-0.37357 -0.402967,-0.54974 -0.146331,-0.18425 -0.30479,-0.35474 -0.466451,-0.52057 -0.148035,-0.16676 -0.310111,-0.31464 -0.474508,-0.45869 -0.175995,-0.15024 -0.363305,-0.28126 -0.556968,-0.39816 -0.21069,-0.13584 -0.43761,-0.23033 -0.664927,-0.32055 -0.2504,-0.0925 -0.505027,-0.16982 -0.760015,-0.24343 -0.261262,-0.0743 -0.526807,-0.12415 -0.792916,-0.16791 -0.282334,-0.0383 -0.563881,-0.0836 -0.846233,-0.12169 -0.293458,-0.0454 -0.589343,-0.0552 -0.8849,-0.0638 -0.293497,-0.0131 -0.586817,-0.007 -0.880239,0.004 -0.295834,0.0124 -0.591727,0.0226 -0.887663,0.0311 -0.195978,0.0112 -0.09904,0.005 -0.29082,0.017 0,0 6.85e-4,5.3e-4 6.85e-4,5.3e-4 v 0 c 0.198831,-0.004 0.09957,8e-5 0.297794,-0.0112 0.295944,-0.008 0.591838,-0.0189 0.887689,-0.0311 0.293412,-0.0112 0.586716,-0.0165 0.880207,-0.003 0.295591,0.009 0.591499,0.0184 0.884979,0.064 0.282407,0.0379 0.563976,0.0836 0.846354,0.12183 0.266001,0.0437 0.531458,0.0936 0.792621,0.1678 0.254895,0.074 0.509698,0.15045 0.759968,0.2435 0.227431,0.0906 0.454584,0.18506 0.665397,0.32119 0.187767,0.11338 0.369153,0.2407 0.539752,0.38645 0.164789,0.14432 0.3274,0.29226 0.475867,0.45925 0.161976,0.16593 0.32081,0.33641 0.467362,0.5209 0.141662,0.1761 0.284333,0.35206 0.403634,0.54996 0.105327,0.17262 0.200031,0.35216 0.279189,0.54301 0.07706,0.18835 0.148058,0.38138 0.198963,0.58156 0.04792,0.20958 0.08878,0.42077 0.11169,0.63629 0.02675,0.21507 0.04661,0.43184 0.05705,0.64878 0.0098,0.21263 0.02132,0.42543 0.01044,0.63837 -0.0052,0.2074 -0.01165,0.41479 -0.02166,0.62197 -0.01027,0.21369 -0.02253,0.42724 -0.0334,0.64089 -0.0086,0.22016 -0.03228,0.43906 -0.05869,0.65719 -0.0294,0.22018 -0.06194,0.44073 -0.120968,0.65328 -0.05261,0.21847 -0.11535,0.43291 -0.181488,0.64634 -0.07014,0.21672 -0.149217,0.42999 -0.243821,0.63398 -0.111269,0.21396 -0.227841,0.42364 -0.367598,0.61463 -0.156283,0.21438 -0.318741,0.42225 -0.495457,0.61445 -0.194419,0.2102 -0.388407,0.42212 -0.599334,0.61019 -0.220675,0.19257 -0.449838,0.37189 -0.686387,0.53723 -0.267637,0.18011 -0.539864,0.35221 -0.822075,0.4998 -0.305245,0.15196 -0.615902,0.28835 -0.933682,0.40108 -0.309204,0.11238 -0.622529,0.20834 -0.937142,0.29809 -0.29255,0.0839 -0.588027,0.1503 -0.884765,0.21116 -0.326019,0.0625 -0.652159,0.12338 -0.979603,0.17512 -0.324554,0.0473 -0.648893,0.0999 -0.975686,0.12183 -0.288853,0.0208 -0.578308,0.0318 -0.867627,0.0393 -0.294862,-0.004 -0.589925,-0.0103 -0.883305,-0.0486 -0.296074,-0.0333 -0.591981,-0.0714 -0.885019,-0.13176 -0.270466,-0.0588 -0.539202,-0.12884 -0.801684,-0.2257 -0.227764,-0.084 -0.454888,-0.1703 -0.673385,-0.28377 -0.20437,-0.10261 -0.408242,-0.20651 -0.603882,-0.33054 -0.186013,-0.11667 -0.37272,-0.23219 -0.553803,-0.35902 -0.174446,-0.12509 -0.351926,-0.24464 -0.517647,-0.38538 -0.161396,-0.13543 -0.322404,-0.27185 -0.476943,-0.41775 -0.143184,-0.13674 -0.28168,-0.27985 -0.418394,-0.42521 -0.139911,-0.14076 -0.27469,-0.28827 -0.411675,-0.43283 -0.134842,-0.14941 -0.274577,-0.29298 -0.400557,-0.45292 -0.128887,-0.16093 -0.249859,-0.33039 -0.364387,-0.50533 -0.106623,-0.17274 -0.206732,-0.35015 -0.310137,-0.52549 -0.09584,-0.17696 -0.188196,-0.35612 -0.268654,-0.54331 -0.07578,-0.17713 -0.146371,-0.35732 -0.205564,-0.54288 -0.06185,-0.19005 -0.11156,-0.38506 -0.157471,-0.58102 -0.04201,-0.20995 -0.07662,-0.42136 -0.08977,-0.63679 -0.01693,-0.21982 -0.02497,-0.44135 -0.0192,-0.66198 0.0063,-0.21634 0.01279,-0.4328 0.02853,-0.64855 0.0192,-0.213 0.04896,-0.42466 0.06754,-0.63783 0.02522,-0.20791 0.0541,-0.41538 0.0974,-0.61941 0.04341,-0.20229 0.09424,-0.40222 0.140054,-0.60378 0.05651,-0.20627 0.119826,-0.41014 0.202313,-0.60468 0.08413,-0.20035 0.169587,-0.40018 0.283053,-0.58114 0.106803,-0.18348 0.219878,-0.36223 0.354016,-0.52053 0.142878,-0.16434 0.292367,-0.32168 0.450772,-0.46572 0.161109,-0.14563 0.326643,-0.28352 0.504218,-0.40145 0.20076,-0.12977 0.404596,-0.25361 0.618704,-0.35164 0.244653,-0.11203 0.489361,-0.22619 0.744009,-0.30469 0.283106,-0.094 0.568317,-0.18099 0.856844,-0.24978 0.266249,-0.0607 0.532292,-0.12275 0.801548,-0.16344 0.275584,-0.0472 0.552485,-0.0835 0.829971,-0.11192 0.287607,-0.0319 0.575846,-0.0529 0.864132,-0.0749 0.281258,-0.0188 0.563063,-0.0241 0.844323,-0.0436 0.260825,-0.0172 0.52158,-0.0369 0.781595,-0.0667 0.196117,-0.023 0.392107,-0.0463 0.588904,-0.0603 z" /><path
       style="fill:#808080;stroke:#000000;stroke-width:0.103626;stroke-linecap:round;stroke-linejoin:round;stroke-dasharray:none;stroke-opacity:1"
       d="m 85.138628,151.408 c -0.08032,-0.011 -0.323555,-0.0425 -0.540519,-0.07 -0.895227,-0.11349 -1.740375,-0.41144 -2.538829,-0.89503 -0.977679,-0.59215 -1.522713,-1.06361 -2.43369,-2.10517 -1.134086,-1.29664 -1.62204,-2.48922 -1.62204,-3.96432 0,-1.56409 0.359626,-3.05246 0.940051,-3.89057 0.453881,-0.65538 1.484448,-1.39432 2.081427,-1.49242 0.153152,-0.0252 0.329279,-0.0879 0.391397,-0.13949 0.175072,-0.1453 0.993226,-0.32925 1.858134,-0.41778 l 0.785506,-0.0804 0.113877,0.1266 c 0.167527,0.18624 0.400929,0.17784 0.497214,-0.0179 0.03909,-0.0795 0.09924,-0.15759 0.133669,-0.1736 0.03442,-0.016 0.91692,-0.0383 1.961102,-0.0495 2.446632,-0.0262 3.389651,0.0729 4.625503,0.48632 0.909446,0.30422 1.52188,0.75622 2.281478,1.68385 0.779624,0.95208 0.996319,1.67564 0.989895,3.30537 -0.0087,2.21891 -0.304969,3.46698 -1.055965,4.44905 -1.360162,1.77866 -3.131377,2.66945 -6.215027,3.12569 -0.617551,0.0914 -1.944122,0.1616 -2.253183,0.11927 z m 1.694854,-4.5973 c 1.244082,-0.25043 2.142722,-0.88108 2.629827,-1.84555 0.160156,-0.31711 0.306071,-0.86227 0.333949,-1.24768 0.058,-0.80186 -0.423379,-1.88433 -1.017699,-2.28848 -0.865725,-0.58871 -2.065533,-0.48685 -3.361081,0.28535 -0.484666,0.28888 -0.719492,0.49633 -1.302125,1.15032 -0.475872,0.53415 -0.665171,0.7006 -0.752543,0.6617 -0.187109,-0.0833 0.07079,-0.57113 0.631952,-1.19534 0.360268,-0.40074 0.720832,-0.70948 1.149326,-0.98412 0.316826,-0.20307 0.389459,-0.2854 0.351924,-0.3989 -0.06676,-0.20187 -1.041046,0.0474 -1.661288,0.42496 -0.371327,0.22607 -1.079456,1.05793 -1.316125,1.5461 -0.287381,0.59277 -0.36138,0.87478 -0.361033,1.37593 4.56e-4,0.59274 0.110479,0.91747 0.436824,1.28868 0.390407,0.44408 1.471786,1.0051 2.355474,1.22203 0.398819,0.0979 1.40779,0.10058 1.882618,0.005 z"
       id="path32" /></g><g
     inkscape:groupmode="layer"
     id="layer4"
     inkscape:label="Layer 4"
     style="opacity:0.864407;filter:url(#filter47)"
     transform="translate(-58.109628,-114.01699)"><path
       style="display:inline;fill:#ffffff;stroke:#ffffff;stroke-width:0.567125;stroke-linecap:round;stroke-linejoin:round"
       d="m 85.960792,138.86853 c 0.0644,-0.0149 0.127919,-0.0365 0.19319,-0.0449 0.145466,-0.0187 0.186738,0.0211 0.309103,0.0449 0.127375,0.0246 0.256737,0.0197 0.38638,0.0449 0.08034,0.0155 0.304683,0.0474 0.231826,0.0896 -0.05874,0.0341 -0.132215,0.0165 -0.193188,0.0449 -0.162668,0.0755 -0.3329,0.0809 -0.502293,0.1345 -0.182149,0.0577 -0.323839,0.12018 -0.502294,0.17934 -0.105483,0.035 -0.250031,0.0589 -0.34774,0.1345 -0.0302,0.0233 0.01619,0.12582 0.03864,0.1345 0.196052,0.0758 0.667562,-0.0449 0.888671,-0.0449 5e-6,0 -0.15452,0 -0.15455,0 -0.0365,0 -0.463657,0.0434 -0.463657,0.17934 0,0.0149 0.02712,-0.007 0.03864,0 0.157035,0.0911 0.316305,0.0896 0.502295,0.0896 0.04073,0 -0.0764,0.0333 -0.115914,0.0449 -0.03387,0.01 -0.425019,0.0567 -0.425019,0.1345 0,0.12367 0.352867,0.1345 0.425019,0.1345 0.192932,0 -0.347743,0.21454 -0.347743,0.26901 0,0.0588 0.478836,0.0449 0.540931,0.0449"
       id="path1" /><path
       style="display:inline;fill:#ffffff;stroke:#ffffff;stroke-width:0.567125;stroke-linecap:round;stroke-linejoin:round"
       d="m 87.776773,140.75156 c 0.235081,0.20224 0.20794,0.0786 0.425019,0.17933 0.0169,0.008 0.02078,0.0407 0.03864,0.0449 0.321077,0.0745 0.0062,-0.0778 0.270464,0.0449 0.02674,0.0124 0.106074,0.0449 0.07728,0.0449 -0.02406,0 -0.450471,-0.12685 -0.463654,-0.1345 -0.03258,-0.0189 -0.04399,-0.0725 -0.07727,-0.0896 -0.08569,-0.0442 -0.322475,8e-4 -0.270466,-0.0896 0.0647,-0.11261 0.231693,-0.0314 0.347743,-0.0449 0.150729,-0.0175 -0.203451,0.0998 0.231825,-0.0896 0.301989,-0.13142 -0.09836,0.0408 0.270467,-0.0449 0.01786,-0.004 0.02172,-0.037 0.03864,-0.0449 0.149104,-0.0692 0.239241,-0.0492 0.386378,-0.1345 0.01153,-0.007 0.03864,0.0149 0.03864,0 0,-0.10249 -0.213384,-0.0896 -0.270464,-0.0896 -0.05152,0 -0.154552,-0.0598 -0.154552,0 0,0.0273 0.694921,-0.0429 0.734121,-0.17933 0.05885,-0.20487 -0.347743,-0.26581 -0.347743,-0.26901 0,-0.0436 0.338068,-0.11848 0.38638,-0.1345 0.01822,-0.006 0.270465,-0.0373 0.270465,-0.1345 0,-0.25641 -0.122907,-0.2404 -0.15455,-0.31383 -0.01628,-0.0378 0.04346,-0.074 0.07727,-0.0896 0.107819,-0.0501 0.605473,-0.16455 0.656845,-0.22417 0.132888,-0.15419 -0.439648,-0.29685 -0.579569,-0.1345 -0.0041,0.005 0.109733,0.0825 0.115915,0.0896"
       id="path2" /><path
       style="display:inline;fill:#ffffff;stroke:#ffffff;stroke-width:0.567125;stroke-linecap:round;stroke-linejoin:round"
       d="m 84.106173,141.15506 c -0.24994,0.18277 -0.54274,0.23397 -0.811397,0.35867 -0.04931,0.0229 -0.154551,0.10646 -0.154551,0.0449 0,-0.0805 0.12944,-0.058 0.193188,-0.0896 0.12514,-0.0622 0.254192,-0.18582 0.386381,-0.22417 0.127421,-0.037 0.427912,0.0549 0.386379,-0.0896 -0.08202,-0.28553 -0.669752,-0.17932 -0.850036,-0.0896 -0.04268,0.0212 -0.0728,0.0696 -0.115912,0.0896 -0.0336,0.0156 -0.25961,-0.0386 -0.115914,0.0449 0.0589,0.0342 0.182291,-0.0218 0.231826,-0.0449 0.322455,-0.14967 0.666925,-0.28499 0.965949,-0.49318 0.05539,-0.0385 0.246704,-0.16207 0.193191,-0.22416 -0.04452,-0.0517 -1.088746,0.23981 -1.197777,0.269 -0.1157,0.0309 -0.233569,0.0518 -0.347741,0.0896 -0.02769,0.009 -0.106074,0.0449 -0.07727,0.0449 0.149164,0 1.372948,-0.42139 1.275051,-0.76217 -0.02545,-0.0886 -0.295541,-0.0464 -0.309101,-0.0449 -0.06232,0.007 -1.20688,0.33497 -1.236414,0.40351 -0.06186,0.14355 0.536793,-0.13276 0.54093,-0.13451 0.100517,-0.0424 0.77276,-0.3025 0.77276,-0.49317 0,-0.0423 -0.04113,-0.095 -0.07727,-0.0896 -0.313074,0.0454 -0.640293,0.21594 -0.927312,0.35868 -0.01331,0.007 -0.21672,0.0546 -0.231827,0.0896 -0.04681,0.10865 0.684562,-0.20468 0.618206,-0.35867 -0.06524,-0.15141 -0.876509,0.10973 -1.004585,0.13451 -0.161163,0.0311 -0.270466,0.15432 -0.270466,0.0896 0,-0.0335 0.05152,-0.0299 0.07727,-0.0449 0.185131,-0.1074 0.377966,-0.20739 0.54093,-0.35867 0.07074,-0.0657 0.146295,-0.17051 0.115915,-0.17933 -0.226743,-0.0658 -0.51506,0.0389 -0.734121,0.0896 -0.05052,0.0117 -0.105678,-0.0189 -0.154551,0 -0.01729,0.007 -0.05631,0.05 -0.03864,0.0449 0.120058,-0.0349 0.430264,-0.22722 0.502293,-0.26901 0.05152,-0.0298 0.106627,-0.0526 0.154552,-0.0896 0.06062,-0.0469 0.110837,-0.11171 0.15455,-0.17934 0.188424,-0.29152 -0.425017,0.003 -0.425017,0.17934"
       id="path33" /><path
       style="display:inline;fill:#ffffff;stroke:#ffffff;stroke-width:0.567125;stroke-linecap:round;stroke-linejoin:round"
       d="m 81.865174,142.85875 c -0.05152,0.0149 -0.167431,-0.0149 -0.154552,0.0449 0.01288,0.0598 0.197034,-0.0818 0.154552,-0.0449 -0.09216,0.0802 -0.207973,0.11533 -0.309104,0.17934 -0.117435,0.0743 -0.194462,0.18919 -0.309102,0.26901 -0.07074,0.0493 -0.09661,0.10088 -0.154552,0.1345 -0.01629,0.009 -0.05152,0.0598 -0.03864,0.0449 0.148464,-0.17227 0.330771,-0.30043 0.463654,-0.49317 0.02901,-0.0421 0.03322,-0.11747 0.07727,-0.13451 0.08553,-0.033 0.310785,0.0935 0.270466,0 -0.184699,-0.42863 -0.412575,0.0608 -0.463656,0.17934 -0.0115,0.0267 0.01153,0.0629 0,0.0896 -0.0081,0.0189 -0.03864,0.0237 -0.03864,0.0449 0,0.0175 0.05419,0.0716 0.07727,0.0449 0.100139,-0.11619 -0.03269,-0.6018 -0.154552,-0.67251 -0.06126,-0.0356 -0.213761,0.0851 -0.270464,0.1345 -0.145864,0.12695 -0.446304,0.71735 -0.463654,0.71735 -0.0576,0 0.05152,-0.11956 0.07727,-0.17934 0.02904,-0.0674 0.298984,-0.85184 0.231826,-0.85184 -0.176842,0 -0.477255,0.53927 -0.579568,0.71734 -0.08894,0.1548 -0.125894,0.26321 -0.115914,0.269 0.132013,0.0766 0.05635,-0.008 0.07727,-0.0449 0.143752,-0.25022 0.01418,0.10158 0.154552,-0.22418 0.102678,-0.23829 0.154552,-0.54668 0.154552,-0.80701 0,-0.0147 0.01181,-0.15791 -0.03864,-0.1345 -0.246651,0.11448 -0.420333,0.43634 -0.618206,0.62768 -0.03567,0.0344 -0.08308,0.0516 -0.115915,0.0896 -0.03283,0.0382 -0.04444,0.0964 -0.07727,0.13451 -0.03267,0.0379 -0.154552,0.0539 -0.154552,0.1345 0,0.0334 0.05258,-0.0276 0.07727,-0.0449 0.14661,-0.10207 0.275431,-0.2533 0.386379,-0.40351 0.156518,-0.21188 0.22597,-0.40756 0.347742,-0.67251 0.04021,-0.0875 0.09815,-0.21076 0.115914,-0.31383 0.0076,-0.044 0.03864,-0.1345 0,-0.1345 -0.150159,0 -0.711025,0.71359 -0.850035,0.85184 -0.04149,0.0413 -0.154552,0.0896 -0.115914,0.1345 0.04554,0.0529 0.109018,-0.0816 0.154552,-0.1345 0.168562,-0.19559 0.386123,-0.38503 0.502293,-0.62767 0.02579,-0.0539 0.01772,-0.1227 0.03864,-0.17934 0.01829,-0.0495 0.06003,-0.0845 0.07727,-0.1345 0.01468,-0.0426 -0.01507,-0.21049 -0.03864,-0.22417 -0.01998,-0.0116 -0.226319,0.10035 -0.270465,0.1345 -0.169438,0.13107 -0.337603,0.26452 -0.502295,0.40351 -0.02722,0.0229 -0.46174,0.44834 -0.463654,0.44834 -0.01288,0 -0.0058,-0.0315 0,-0.0449 0.07718,-0.17911 0.237857,-0.23117 0.347742,-0.35867 0.09681,-0.11233 0.173655,-0.24634 0.270464,-0.35867 0.301318,-0.34964 0.01087,0.12583 0.309105,-0.35867 0.02367,-0.0385 0.07645,-0.15206 0.03864,-0.1345 -0.228309,0.10597 -0.508045,0.39641 -0.695483,0.58284 -0.08412,0.0836 -0.192123,0.13326 -0.270466,0.22417 -0.116887,0.13563 -0.26299,0.397 0.03864,0.1345 0.07111,-0.0619 0.405794,-0.48191 0.231828,-0.58285 -0.193027,-0.11198 -0.631697,0.19553 -0.73412,0.40351 -0.03441,0.0699 -0.05152,0.14944 -0.07727,0.22418"
       id="path35" /><path
       style="display:inline;fill:#ffffff;stroke:#ffffff;stroke-width:0.567125;stroke-linecap:round;stroke-linejoin:round"
       d="m 79.392346,147.83533 c -0.0644,-0.0896 -0.128791,-0.17934 -0.193188,-0.269 -0.01288,-0.0298 -0.02135,-0.0629 -0.03864,-0.0896 -0.02371,-0.0367 -0.215096,-0.28841 -0.154552,-0.35867 0.0344,-0.04 0.188751,0.10594 0.231829,0.1345 0.699955,0.46412 -0.254091,-0.16746 0.34774,0.26901 0.251697,0.18253 0.533861,0.3301 0.772758,0.53801 0.03333,0.029 0.154553,0.13802 0.154553,0.17934 0,0.029 -0.161229,-0.14032 -0.309105,-0.26901 -0.117476,-0.10223 -0.243904,-0.19335 -0.34774,-0.31384 -0.04554,-0.0529 -0.07038,-0.1265 -0.115914,-0.17934 -0.02037,-0.0236 -0.05152,-0.0298 -0.07727,-0.0449 -0.07727,-0.0896 -0.159863,-0.17357 -0.231828,-0.269 -0.01895,-0.0251 -0.01827,-0.066 -0.03864,-0.0896 -0.01891,-0.0219 -0.15455,-0.11371 -0.15455,-0.17932 0,-0.0806 0.233514,0.0713 0.270464,0.0896 0.173266,0.0861 0.880537,0.80701 0.96595,0.80701 8e-6,0 -0.154478,-0.17923 -0.154553,-0.17934 -0.05885,-0.0853 -0.358697,-0.55741 -0.309104,-0.67251 0.04293,-0.0996 0.03434,-0.0199 0.07727,0 0.04019,0.16515 0.132216,0.0165 0.19319,0.0449 0.223614,0.1038 0.397919,0.27269 0.579568,0.44834 0.11504,0.11124 0.309205,0.0899 0.386381,0.26901 0.0058,0.0133 0.01288,0.0449 0,0.0449 -0.07387,0 -0.02016,-0.0629 -0.03864,-0.0896 -0.04551,-0.066 -0.107137,-0.11515 -0.154552,-0.17934 -0.07919,-0.1072 -0.811396,-1.06269 -0.811396,-1.12084 0,-0.0234 0.219766,0.11434 0.386381,0.269 0.06209,0.0576 0.490732,0.49317 0.579567,0.49317 0.0033,0 -0.0048,-0.34751 0,-0.35867 0.04244,-0.0985 0.124641,-0.055 0.193189,-0.1345 0.0091,-0.0106 -0.03288,0.0133 -0.03864,0 -0.01151,-0.0267 0.0081,-0.0613 0,-0.0896 -0.0058,-0.02 -0.03287,-0.0247 -0.03864,-0.0449 -0.01222,-0.0426 0,-0.0896 0,-0.1345 0,-0.0298 -0.02304,-0.0763 0,-0.0896 0.117426,-0.0681 0.355696,0.0835 0.463657,0 0.189011,-0.14621 0.227223,-0.17933 0.463655,-0.17933"
       id="path36" /><path
       style="display:inline;fill:#ffffff;stroke:#ffffff;stroke-width:0.567125;stroke-linecap:round;stroke-linejoin:round"
       d="m 81.092416,149.13551 c 0.290255,-0.003 0.411493,0.30861 0.656845,0.40351"
       id="path37" /><path
       style="display:inline;fill:#ffffff;stroke:#ffffff;stroke-width:0.567125;stroke-linecap:round;stroke-linejoin:round"
       d="m 82.251553,149.94252 c -0.20229,0.12285 -0.223653,0 -0.386379,0 -0.03864,0 -0.115913,0.0449 -0.115913,0 0,-0.0211 0.02041,-0.0449 0.03864,-0.0449 0.155086,0 0.309102,0.0299 0.463655,0.0449 z"
       id="path38" /><path
       style="display:inline;fill:#ffffff;stroke:#ffffff;stroke-width:0.567125;stroke-linecap:round;stroke-linejoin:round"
       d="m 82.560655,149.44935 c -0.185675,-0.19117 -0.499333,-0.0724 -0.695481,-0.22417 -0.04418,-0.0341 0.0011,-0.13577 0.03864,-0.17933 0.02581,-0.0299 0.535944,-0.29697 0.579569,-0.31384 0.02924,-0.0113 0.172948,-0.0903 0.115912,-0.13451 -0.111261,-0.086 -0.164933,-0.004 -0.270464,-0.0449 -0.05152,-0.0199 -0.05152,-0.0697 0,-0.0896 0.02443,-0.009 0.05251,0.008 0.07728,0 0.09007,-0.0298 0.956072,-0.38059 0.965947,-0.4035 0.03706,-0.086 -0.126739,-0.0449 -0.154552,-0.0449 -0.05152,0 -0.154551,-0.0598 -0.154551,0 0,0.0699 0.480699,-0.1345 0.540931,-0.1345 0.02576,-0.14944 0.06636,-0.29644 0.07727,-0.44831 0.0047,-0.0666 -0.05906,-0.11592 -0.07727,-0.17933 -0.05359,-0.18654 0.09148,-0.25483 0.193189,-0.31385 0.01629,-0.009 0.02042,-0.0449 0.03864,-0.0449 0.04643,0 0.07438,0.0656 0.115914,0.0896"
       id="path39" /><path
       style="display:inline;fill:#ffffff;stroke:#ffffff;stroke-width:0.567125;stroke-linecap:round;stroke-linejoin:round"
       d="m 84.840294,151.06338 c 0.06439,-0.0449 0.128793,-0.0896 0,0 z"
       id="path40" /><path
       style="display:inline;fill:#ffffff;stroke:#ffffff;stroke-width:0.567125;stroke-linecap:round;stroke-linejoin:round"
       d="m 85.033483,150.65981 c -0.0288,0.0334 -0.152344,0.066 -0.115913,0.0449 0.173795,-0.10075 0.363268,0.0128 0.54093,-0.0896 -0.34978,0.0368 -0.521555,0.1749 -0.73412,-0.26901 -0.0039,-0.008 0.381941,-0.28884 0.425017,-0.31384"
       id="path41" /><path
       style="display:inline;fill:#ffffff;stroke:#ffffff;stroke-width:0.567125;stroke-linecap:round;stroke-linejoin:round"
       d="m 85.497137,149.67352 c -0.03785,-0.0757 -0.510871,-0.10463 -0.425015,-0.17934 0.01164,-0.0101 0.635271,-0.37614 0.54093,-0.4035 -0.10646,-0.0308 -0.272887,0 -0.386381,0 -0.02575,0 -0.09549,0.0211 -0.07727,0 0.06666,-0.0773 0.59443,-0.23451 0.540932,-0.35867 -0.05814,-0.13495 -0.288344,-0.0207 -0.347743,-0.0896 -0.02908,-0.0337 0.489969,-0.2232 0.386381,-0.4035 -0.07187,-0.1251 -0.280806,-0.0203 -0.386381,-0.0449 -0.0409,-0.009 -0.184215,-0.10005 -0.231825,-0.0449 -0.06294,0.073 0.185543,0.0449 0.193188,0.0449"
       id="path42" /><path
       style="display:inline;fill:#ffffff;stroke:#ffffff;stroke-width:0.567125;stroke-linecap:round;stroke-linejoin:round"
       d="m 88.163154,147.52149 c -0.103035,-0.0298 -0.203425,-0.0774 -0.309104,-0.0896 -0.06844,-0.008 -0.976442,0.42399 -0.927309,0.53801 0.07141,0.16572 0.84067,-0.11232 0.927309,-0.17934 0.107163,-0.0829 0.380546,-0.39335 0.309104,-0.269 -0.09612,0.16729 -0.263857,0.26133 -0.386381,0.4035 -0.127247,0.14766 0.08681,0.29621 0.193191,0.31385 0.02298,0.004 0.386378,-0.0442 0.386378,0.0449 0,0.12035 -0.571144,0.47767 -0.502292,0.71735 0.06297,0.21921 0.551055,0.0117 0.579568,0.0449 0.01288,0.0149 -0.02575,0.0298 -0.03864,0.0449 -0.02576,0.0299 -0.04929,0.0626 -0.07727,0.0896 -0.142262,0.13756 -0.379797,0.28328 -0.425018,0.49317 -0.02105,0.0977 -0.02926,0.13994 0.03864,0.17934 0.115915,0.0672 -0.07727,0.0449 0.115915,0.1345 0.14618,0.0678 0.389481,-0.11029 0.502292,-0.0449 0.0475,0.0275 -0.01489,0.12423 -0.03864,0.17934 -0.09645,0.22383 -0.154552,0.34209 -0.154552,0.58284"
       id="path43" /><path
       style="display:inline;fill:#ffffff;stroke:#ffffff;stroke-width:0.567125;stroke-linecap:round;stroke-linejoin:round"
       d="m 88.974548,146.53514 c -0.03863,-0.0598 -0.06439,-0.22417 -0.115911,-0.17933 -0.05152,0.0449 0.139031,0.10959 0.115911,0.17933 -0.05567,0.16796 -0.225838,0.25169 -0.309102,0.4035 -0.02285,0.0417 0.101433,0.29031 0.193191,0.26901 0.193777,-0.045 0.433034,-0.0989 0.579568,-0.26901 0.02037,-0.0236 0.01827,-0.066 0.03864,-0.0896 6.85e-4,-8e-4 0.115914,-0.0548 0.115914,-0.0449 0,0.0727 -0.323025,0.47702 -0.154552,0.67251 0.02575,0.03 0.04085,0.0896 0.07727,0.0896 0.179602,0 0.346001,-0.17733 0.463655,-0.31385 0.08861,-0.10281 -0.01516,0.0234 0.115914,-0.17934 0.01092,-0.0169 0.05685,-0.0449 0.03864,-0.0449 -0.121296,0 -1.01613,0.82505 -0.927311,1.03118 0.0014,0.003 0.223523,0.0155 0.270467,0 0.04465,-0.0148 0.07348,-0.0678 0.115913,-0.0896 0.07443,-0.0384 0.158971,-0.0474 0.231827,-0.0896 0.0576,-0.0335 0.09826,-0.0982 0.154552,-0.13451 0.174668,-0.11259 0.364317,-0.19997 0.54093,-0.31383 0.04036,-0.026 0.234459,-0.22417 0.270467,-0.22417 0.06676,0 -0.105371,0.12227 -0.115915,0.1345 -0.07303,0.0847 -0.335143,0.43274 -0.270465,0.58284 0.04926,0.11431 0.71658,-0.21399 0.811396,-0.269 0.01,-0.006 0.208444,-0.1168 0.19319,-0.1345 -0.01288,-0.0149 -0.02575,0.0299 -0.03864,0.0449 -0.03864,0.0449 -0.07727,0.0896 -0.115914,0.1345 -0.09262,0.10747 -0.648422,0.51137 -0.347743,0.62767 0.132347,0.0512 0.83013,-0.11186 1.004588,-0.17934 0.120337,-0.0466 0.229967,-0.12467 0.34774,-0.17933 0.0655,-0.0305 0.29847,-0.15919 0.347742,-0.0449 0.02685,0.0623 -0.19519,0.35635 -0.07727,0.49318"
       id="path44" /><path
       style="display:inline;fill:#ffffff;stroke:#ffffff;stroke-width:0.567125;stroke-linecap:round;stroke-linejoin:round"
       d="m 90.829171,145.72812 c -0.0644,0 -0.19319,-0.0747 -0.19319,0 0,0.0747 0.139019,0.0404 0.19319,0 0.137891,-0.10285 0.237471,-0.26276 0.34774,-0.4035 0.01541,-0.0196 0.125247,-0.31383 0.07727,-0.31383 -0.01944,0 -0.157069,0.25096 -0.193191,0.31383 -0.07727,0.1345 -0.300945,0.26316 -0.231826,0.4035 0.06516,0.13233 0.260844,-0.0449 0.386378,-0.0896 0.14011,-0.05 0.24324,-0.25256 0.34774,-0.35867 0.145595,-0.14782 0.473223,-0.39774 0.579572,-0.58284 0.0072,-0.0124 -0.0091,-0.0342 0,-0.0449 0.0208,-0.0241 0.09406,-0.0136 0.07727,0.0449 -0.05376,0.18714 -0.271806,0.53177 -0.231825,0.71734 0.03915,0.1817 0.398844,0.0178 0.463654,-0.0449 0.06996,-0.0677 0.128793,-0.14945 0.19319,-0.22417 0.01288,-0.0149 0.02041,-0.0449 0.03864,-0.0449 0.01288,0 -0.0031,0.0303 0,0.0449 0.02165,0.10053 0.06199,0.20542 0.03864,0.31383 -0.0153,0.0711 -0.09371,0.21464 0,0.269 0.330504,0.19176 0.684886,-0.13362 0.927308,-0.35866 0.02202,-0.0204 0.258611,-0.23793 0.309104,-0.17934 0.07307,0.0848 -0.07727,0.28038 -0.07727,0.35867"
       id="path45" /><path
       style="display:inline;fill:#ffffff;stroke:#ffffff;stroke-width:0.567125;stroke-linecap:round;stroke-linejoin:round"
       d="m 90.597342,143.35192 c -0.08782,0.0273 -0.18206,-0.0205 -0.270466,0 -0.308485,0.0716 -0.323205,0.15906 -0.15455,-0.1345 0.03533,-0.0615 0.06159,-0.20596 0.115912,-0.269 0.02037,-0.0236 0.05691,-0.0212 0.07727,-0.0449 0.108794,-0.003 0.0098,-0.10109 0.03864,-0.1345 0.02037,-0.0236 0.05691,-0.0212 0.07727,-0.0449 0.0091,-0.0106 -0.01288,-0.0449 0,-0.0449 0.08558,0 -0.0011,0.17967 0.154552,0.13451 0.22357,-0.0649 0.47627,-0.39832 0.656844,-0.53801 0.04793,-0.037 0.109575,-0.048 0.154552,-0.0896 0.117084,-0.10868 -0.05269,-0.0856 0.115912,-0.1345 0.08478,-0.0246 0.193618,0.224 0.425019,0.1345 0.06216,-0.024 0.324196,-0.1422 0.34774,-0.22416 0.01352,-0.0471 0.04245,-0.39004 0.07728,-0.40351 0.189833,-0.0734 0.444458,-0.0897 0.618206,-0.22418 0.07807,-0.0604 0.132472,-0.1836 0.07727,-0.269 -0.09351,-0.14467 -0.54093,-0.26517 -0.54093,-0.22417 0,0.0298 0.05172,-0.004 0.07727,0 0.07774,0.0113 0.153486,0.0449 0.231826,0.0449 0.05311,0 0.101667,-0.0393 0.154552,-0.0449 0.08979,-0.009 0.180862,0.0115 0.270467,0 0.02862,-0.004 0.04996,-0.0342 0.07727,-0.0449 0.156351,-0.0605 -0.0035,-0.0917 -0.07727,-0.13451 -0.184064,-0.10679 0.0894,0.0146 0.15455,0.0449"
       id="path46" /><path
       style="display:inline;fill:#ffffff;stroke:#ffffff;stroke-width:0.567125;stroke-linecap:round;stroke-linejoin:round"
       d="m 90.365514,142.36558 c 0.06439,-0.0149 0.20607,0.0299 0.193191,-0.0449 -0.01288,-0.0747 -0.175148,0.1181 -0.193191,0.0449 -0.115017,-0.46711 0.353716,-0.38909 0.54093,-0.44834 0.07858,-0.0249 0.153507,-0.0637 0.231828,-0.0896 0.04663,-0.0154 0.04398,0.0324 0.07728,-0.0449 0.04208,-0.0977 -0.25766,-0.14936 -0.19319,-0.22417 0.01822,-0.0211 0.05152,0 0.07727,0 0.06439,0 0.129015,0.006 0.19319,0 0.06151,-0.006 0.441698,-0.0835 0.463654,-0.1345 0.05637,-0.13081 -0.270464,-0.17325 -0.270464,-0.26901 0,-0.0433 0.888134,-0.0436 0.888671,-0.0449 0.05791,-0.1344 -0.211505,-0.18996 -0.270464,-0.22417 -0.03258,-0.0189 -0.111836,-0.0763 -0.07727,-0.0896 0.04888,-0.0189 0.103551,0.008 0.15455,0 0.113003,-0.0187 0.255141,-0.0808 0.347742,-0.13451 0.115595,-0.0671 0.09466,-0.269 0.193191,-0.269"
       id="path47" /></g><g
     inkscape:label="Layer 1"
     inkscape:groupmode="layer"
     id="layer1"
     style="display:inline"
     transform="translate(-58.109628,-114.01699)"><path
       id="rect1"
       style="display:inline;fill:#ff6600;stroke:#a05a2c;stroke-width:0.374702;stroke-linecap:round;stroke-linejoin:round"
       d="m 70.703374,116.85019 c -2.001871,0 -3.614192,1.58393 -3.614192,3.55049 v 5.08769 h -5.178944 c -2.001858,0 -3.613259,1.58299 -3.613259,3.54958 v 2.36699 c 0,1.96658 1.611401,3.54958 3.613259,3.54958 h 5.178944 v 5.08769 c 0,1.96659 1.612321,3.5505 3.614192,3.5505 h 2.408524 c 2.001854,0 3.613255,-1.58391 3.613255,-3.5505 v -5.08769 h 5.179886 c 2.001853,0 3.613255,-1.583 3.613255,-3.54958 v -2.36699 c 0,-1.96659 -1.611402,-3.54958 -3.613255,-3.54958 h -5.179886 v -5.08769 c 0,-1.96656 -1.611401,-3.55049 -3.613255,-3.55049 z" /><rect
       style="display:none;opacity:0.864407;fill:#ff6600;stroke:#ffffff;stroke-width:0.616278;stroke-linecap:round;stroke-linejoin:round"
       id="rect47"
       width="50.864311"
       height="50.864311"
       x="58.041065"
       y="110.13534" /></g><g
     inkscape:groupmode="layer"
     id="layer5"
     inkscape:label="Layer 5"
     style="display:inline"><text
       style="font-size:3.175px;font-family:Courier;-inkscape-font-specification:Courier;white-space:pre;display:inline;opacity:0.864407;fill:none;stroke:#4c117c;stroke-width:0.309999;stroke-linecap:round;stroke-linejoin:round"
       x="24.729296"
       y="5.5507097"
       id="text87">&lt;</text><text
       style="font-size:3.175px;font-family:Courier;-inkscape-font-specification:Courier;white-space:pre;display:inline;opacity:0.864407;fill:none;stroke:#7a037a;stroke-width:0.309999;stroke-linecap:round;stroke-linejoin:round;stroke-opacity:0.866667"
       x="26.634605"
       y="5.5507097"
       id="text86">s</text><text
       style="font-size:3.175px;font-family:Courier;-inkscape-font-specification:Courier;white-space:pre;display:inline;opacity:0.864407;fill:none;stroke:#7a037a;stroke-width:0.309999;stroke-linecap:round;stroke-linejoin:round;stroke-opacity:0.866667"
       x="28.539915"
       y="5.5507097"
       id="text85">t</text><text
       style="font-size:3.175px;font-family:Courier;-inkscape-font-specification:Courier;white-space:pre;display:inline;opacity:0.864407;fill:none;stroke:#7a037a;stroke-width:0.309999;stroke-linecap:round;stroke-linejoin:round;stroke-opacity:0.866667"
       x="30.445225"
       y="5.5507097"
       id="text84">y</text><text
       style="font-size:3.175px;font-family:Courier;-inkscape-font-specification:Courier;white-space:pre;display:inline;opacity:0.864407;fill:none;stroke:#7a037a;stroke-width:0.309999;stroke-linecap:round;stroke-linejoin:round;stroke-opacity:0.866667"
       x="32.350536"
       y="5.5507097"
       id="text83">l</text><text
       style="font-size:3.175px;font-family:Courier;-inkscape-font-specification:Courier;white-space:pre;display:inline;opacity:0.864407;fill:none;stroke:#7a037a;stroke-width:0.309999;stroke-linecap:round;stroke-linejoin:round;stroke-opacity:0.866667"
       x="34.255844"
       y="5.5507097"
       id="text82">e</text><text
       style="font-size:3.175px;font-family:Courier;-inkscape-font-specification:Courier;white-space:pre;display:inline;opacity:0.864407;fill:none;stroke:#4c117c;stroke-width:0.309999;stroke-linecap:round;stroke-linejoin:round"
       x="38.066463"
       y="5.5507097"
       id="text81">s</text><text
       style="font-size:3.175px;font-family:Courier;-inkscape-font-specification:Courier;white-space:pre;display:inline;opacity:0.864407;fill:none;stroke:#4c117c;stroke-width:0.309999;stroke-linecap:round;stroke-linejoin:round"
       x="39.971775"
       y="5.5507097"
       id="text80">r</text><text
       style="font-size:3.175px;font-family:Courier;-inkscape-font-specification:Courier;white-space:pre;display:inline;opacity:0.864407;fill:none;stroke:#4c117c;stroke-width:0.309999;stroke-linecap:round;stroke-linejoin:round"
       x="41.877087"
       y="5.5507097"
       id="text79">c</text><text
       style="font-size:3.175px;font-family:Courier;-inkscape-font-specification:Courier;white-space:pre;display:inline;opacity:0.864407;fill:none;stroke:#4c117c;stroke-width:0.309999;stroke-linecap:round;stroke-linejoin:round"
       x="43.782394"
       y="5.5507097"
       id="text78">=</text><text
       style="font-size:3.175px;font-family:Courier;-inkscape-font-specification:Courier;white-space:pre;display:inline;opacity:0.864407;fill:none;stroke:#19760f;stroke-width:0.309999;stroke-linecap:round;stroke-linejoin:round;stroke-opacity:1"
       x="45.687706"
       y="5.5507097"
       id="text77">&quot;</text><text
       style="font-size:3.175px;font-family:Courier;-inkscape-font-specification:Courier;white-space:pre;display:inline;opacity:0.864407;fill:none;stroke:#19760f;stroke-width:0.309999;stroke-linecap:round;stroke-linejoin:round;stroke-opacity:1"
       x="47.593014"
       y="5.5507097"
       id="text76">s</text><text
       style="font-size:3.175px;font-family:Courier;-inkscape-font-specification:Courier;white-space:pre;display:inline;opacity:0.864407;fill:none;stroke:#4c117c;stroke-width:0.309999;stroke-linecap:round;stroke-linejoin:round"
       x="24.729296"
       y="9.5194588"
       id="text75">&lt;</text><text
       style="font-size:3.175px;font-family:Courier;-inkscape-font-specification:Courier;white-space:pre;display:inline;opacity:0.864407;fill:none;stroke:#7a037a;stroke-width:0.309999;stroke-linecap:round;stroke-linejoin:round;stroke-opacity:1"
       x="26.634605"
       y="9.5194588"
       id="text74">b</text><text
       style="font-size:3.175px;font-family:Courier;-inkscape-font-specification:Courier;white-space:pre;display:inline;opacity:0.864407;fill:none;stroke:#7a037a;stroke-width:0.309999;stroke-linecap:round;stroke-linejoin:round;stroke-opacity:1"
       x="28.539915"
       y="9.5194588"
       id="text73">o</text><text
       style="font-size:3.175px;font-family:Courier;-inkscape-font-specification:Courier;white-space:pre;display:inline;opacity:0.864407;fill:none;stroke:#7a037a;stroke-width:0.309999;stroke-linecap:round;stroke-linejoin:round;stroke-opacity:1"
       x="30.445225"
       y="9.5194588"
       id="text72">d</text><text
       style="font-size:3.175px;font-family:Courier;-inkscape-font-specification:Courier;white-space:pre;display:inline;opacity:0.864407;fill:none;stroke:#7a037a;stroke-width:0.309999;stroke-linecap:round;stroke-linejoin:round;stroke-opacity:1"
       x="32.350536"
       y="9.5194588"
       id="text71">y</text><text
       style="font-size:3.175px;font-family:Courier;-inkscape-font-specification:Courier;white-space:pre;display:inline;opacity:0.864407;fill:none;stroke:#4c117c;stroke-width:0.309999;stroke-linecap:round;stroke-linejoin:round"
       x="36.161156"
       y="9.5194588"
       id="text70">o</text><text
       style="font-size:3.175px;font-family:Courier;-inkscape-font-specification:Courier;white-space:pre;display:inline;opacity:0.864407;fill:none;stroke:#4c117c;stroke-width:0.309999;stroke-linecap:round;stroke-linejoin:round"
       x="38.066463"
       y="9.5194588"
       id="text69">n</text><text
       style="font-size:3.175px;font-family:Courier;-inkscape-font-specification:Courier;white-space:pre;display:inline;opacity:0.864407;fill:none;stroke:#4c117c;stroke-width:0.309999;stroke-linecap:round;stroke-linejoin:round"
       x="39.971775"
       y="9.5194588"
       id="text68">l</text><text
       style="font-size:3.175px;font-family:Courier;-inkscape-font-specification:Courier;white-space:pre;display:inline;opacity:0.864407;fill:none;stroke:#4c117c;stroke-width:0.309999;stroke-linecap:round;stroke-linejoin:round"
       x="41.877087"
       y="9.5194588"
       id="text67">o</text><text
       style="font-size:3.175px;font-family:Courier;-inkscape-font-specification:Courier;white-space:pre;display:inline;opacity:0.864407;fill:none;stroke:#4c117c;stroke-width:0.309999;stroke-linecap:round;stroke-linejoin:round"
       x="43.782394"
       y="9.5194588"
       id="text66">a</text><text
       style="font-size:3.175px;font-family:Courier;-inkscape-font-specification:Courier;white-space:pre;display:inline;opacity:0.864407;fill:none;stroke:#4c117c;stroke-width:0.309999;stroke-linecap:round;stroke-linejoin:round"
       x="45.687706"
       y="9.5194588"
       id="text65">d</text><text
       style="font-size:3.175px;font-family:Courier;-inkscape-font-specification:Courier;white-space:pre;display:inline;opacity:0.864407;fill:none;stroke:#4c117c;stroke-width:0.309999;stroke-linecap:round;stroke-linejoin:round"
       x="47.593014"
       y="9.5194588"
       id="text64">=</text><text
       style="font-size:3.175px;font-family:Courier;-inkscape-font-specification:Courier;white-space:pre;display:inline;opacity:0.864407;fill:none;stroke:#4c117c;stroke-width:0.309999;stroke-linecap:round;stroke-linejoin:round"
       x="30.445225"
       y="13.488207"
       id="text63">&lt;</text><text
       style="font-size:3.175px;font-family:Courier;-inkscape-font-specification:Courier;white-space:pre;display:inline;opacity:0.864407;fill:none;stroke:#7a037a;stroke-width:0.309999;stroke-linecap:round;stroke-linejoin:round;stroke-opacity:0.866667"
       x="32.350536"
       y="13.488207"
       id="text62">d</text><text
       style="font-size:3.175px;font-family:Courier;-inkscape-font-specification:Courier;white-space:pre;display:inline;opacity:0.864407;fill:none;stroke:#7a037a;stroke-width:0.309999;stroke-linecap:round;stroke-linejoin:round;stroke-opacity:0.866667"
       x="34.255844"
       y="13.488207"
       id="text61">i</text><text
       style="font-size:3.175px;font-family:Courier;-inkscape-font-specification:Courier;white-space:pre;display:inline;opacity:0.864407;fill:none;stroke:#7a037a;stroke-width:0.309999;stroke-linecap:round;stroke-linejoin:round;stroke-opacity:0.866667"
       x="36.161156"
       y="13.488207"
       id="text60">v</text><text
       style="font-size:3.175px;font-family:Courier;-inkscape-font-specification:Courier;white-space:pre;display:inline;opacity:0.864407;fill:none;stroke:#4c117c;stroke-width:0.309999;stroke-linecap:round;stroke-linejoin:round"
       x="39.971775"
       y="13.488207"
       id="text59">i</text><text
       style="font-size:3.175px;font-family:Courier;-inkscape-font-specification:Courier;white-space:pre;display:inline;opacity:0.864407;fill:none;stroke:#4c117c;stroke-width:0.309999;stroke-linecap:round;stroke-linejoin:round"
       x="41.877087"
       y="13.488207"
       id="text58">d</text><text
       style="font-size:3.175px;font-family:Courier;-inkscape-font-specification:Courier;white-space:pre;display:inline;opacity:0.864407;fill:none;stroke:#4c117c;stroke-width:0.309999;stroke-linecap:round;stroke-linejoin:round"
       x="43.782394"
       y="13.488207"
       id="text57">=</text><text
       style="font-size:3.175px;font-family:Courier;-inkscape-font-specification:Courier;white-space:pre;display:inline;opacity:0.864407;fill:none;stroke:#19760f;stroke-width:0.309999;stroke-linecap:round;stroke-linejoin:round;stroke-opacity:1"
       x="45.687706"
       y="13.488207"
       id="text56">&quot;</text><text
       style="font-size:3.175px;font-family:Courier;-inkscape-font-specification:Courier;white-space:pre;display:inline;opacity:0.864407;fill:none;stroke:#19760f;stroke-width:0.309999;stroke-linecap:round;stroke-linejoin:round;stroke-opacity:1"
       x="47.593014"
       y="13.488207"
       id="text55">m</text><text
       style="font-size:3.175px;font-family:Courier;-inkscape-font-specification:Courier;white-space:pre;display:inline;opacity:0.864407;fill:none;stroke:#4c117c;stroke-width:0.309999;stroke-linecap:round;stroke-linejoin:round"
       x="34.255844"
       y="17.456959"
       id="text54">&lt;</text><text
       style="font-size:3.175px;font-family:Courier;-inkscape-font-specification:Courier;white-space:pre;display:inline;opacity:0.864407;fill:none;stroke:#7a037a;stroke-width:0.309999;stroke-linecap:round;stroke-linejoin:round;stroke-opacity:0.752941"
       x="36.161156"
       y="17.456959"
       id="text53">p</text><text
       style="font-size:3.175px;font-family:Courier;-inkscape-font-specification:Courier;white-space:pre;display:inline;opacity:0.864407;fill:none;stroke:#4c117c;stroke-width:0.309999;stroke-linecap:round;stroke-linejoin:round"
       x="39.971775"
       y="17.456959"
       id="text52">c</text><text
       style="font-size:3.175px;font-family:Courier;-inkscape-font-specification:Courier;white-space:pre;display:inline;opacity:0.864407;fill:none;stroke:#4c117c;stroke-width:0.309999;stroke-linecap:round;stroke-linejoin:round"
       x="41.877087"
       y="17.456959"
       id="text51">l</text><text
       style="font-size:3.175px;font-family:Courier;-inkscape-font-specification:Courier;white-space:pre;display:inline;opacity:0.864407;fill:none;stroke:#4c117c;stroke-width:0.309999;stroke-linecap:round;stroke-linejoin:round"
       x="43.782394"
       y="17.456959"
       id="text50">a</text><text
       style="font-size:3.175px;font-family:Courier;-inkscape-font-specification:Courier;white-space:pre;display:inline;opacity:0.864407;fill:none;stroke:#4c117c;stroke-width:0.309999;stroke-linecap:round;stroke-linejoin:round"
       x="45.687706"
       y="17.456959"
       id="text49">s</text><text
       style="font-size:3.175px;font-family:Courier;-inkscape-font-specification:Courier;white-space:pre;display:inline;opacity:0.864407;fill:none;stroke:#4c117c;stroke-width:0.309999;stroke-linecap:round;stroke-linejoin:round"
       x="47.593014"
       y="17.456959"
       id="text48">s</text></g></svg>
