<?xml version="1.0" encoding="UTF-8" standalone="no"?>
<!-- Created with Inkscape (http://www.inkscape.org/) -->

<svg
   width="50mm"
   height="50mm"
   viewBox="0 0 50 50"
   version="1.1"
   id="svg1"
   xml:space="preserve"
   inkscape:version="1.4.2 (ebf0e940, 2025-05-08)"
   sodipodi:docname="icon48.svg"
   inkscape:export-filename="../prj-priv/github-pr-authorizers-extension/icons/icon16.png"
   inkscape:export-xdpi="8.1280003"
   inkscape:export-ydpi="8.1280003"
   xmlns:inkscape="http://www.inkscape.org/namespaces/inkscape"
   xmlns:sodipodi="http://sodipodi.sourceforge.net/DTD/sodipodi-0.dtd"
   xmlns="http://www.w3.org/2000/svg"
   xmlns:svg="http://www.w3.org/2000/svg"><sodipodi:namedview
     id="namedview1"
     pagecolor="#ffffff"
     bordercolor="#000000"
     borderopacity="0.25"
     inkscape:showpageshadow="2"
     inkscape:pageopacity="0.0"
     inkscape:pagecheckerboard="0"
     inkscape:deskcolor="#d1d1d1"
     inkscape:document-units="mm"
     inkscape:zoom="2.3984582"
     inkscape:cx="64.207915"
     inkscape:cy="62.123243"
     inkscape:window-width="2560"
     inkscape:window-height="1387"
     inkscape:window-x="1512"
     inkscape:window-y="25"
     inkscape:window-maximized="0"
     inkscape:current-layer="layer5" /><defs
     id="defs1"><rect
       x="222.65948"
       y="607.19305"
       width="109.94606"
       height="73.042648"
       id="rect48" /><filter
       inkscape:collect="always"
       style="color-interpolation-filters:sRGB"
       id="filter47"
       x="-0.038722192"
       y="-0.048818088"
       width="1.0774124"
       height="1.0974374"><feGaussianBlur
         inkscape:collect="always"
         stdDeviation="0.18100243"
         id="feGaussianBlur47" /></filter></defs><g
     inkscape:groupmode="layer"
     id="layer2"
     inkscape:label="Layer 2"
     transform="translate(-58.109628,-114.01699)"><path
       style="fill:#ffffff;stroke:#000000;stroke-width:0.776757;stroke-linecap:round;stroke-linejoin:round;stroke-dasharray:none;stroke-opacity:1"
       d="m 56.167839,146.15087 c 7.708587,-5.57008 13.6303,-15.42389 23.283524,-16.6012 5.306094,-0.56484 10.819665,-1.05021 16.044683,0.38039 4.648104,1.62405 8.612954,5.0996 13.232304,6.80857 -4.04415,0.30849 -7.74187,2.65644 -10.009398,6.56487 -4.233833,4.35604 -10.131726,5.36451 -15.516807,6.43468 -5.349144,0.84571 -10.652521,-1.11478 -15.095993,-4.48961 -3.765013,-1.99103 -8.38636,-1.36968 -11.938313,0.9023 z"
       id="path3" /><path
       style="fill:none;stroke:#000000;stroke-width:0.776757;stroke-linecap:round;stroke-linejoin:round;stroke-dasharray:none;stroke-opacity:1"
       d="m 68.283336,133.7553 c -1.365143,1.51371 -4.830076,0.30787 -4.168772,-2.26748"
       id="path4" /><path
       style="fill:none;stroke:#000000;stroke-width:0.776757;stroke-linecap:round;stroke-linejoin:round;stroke-dasharray:none;stroke-opacity:1"
       d="m 71.019094,132.39483 c -2.211556,0.40067 -7.33899,-3.47896 -3.647675,-5.59312"
       id="path5" /><path
       style="fill:none;stroke:#000000;stroke-width:0.776757;stroke-linecap:round;stroke-linejoin:round;stroke-dasharray:none;stroke-opacity:1"
       d="m 74.145674,131.48782 c -2.324614,-0.25495 -6.209228,-5.68063 -1.954113,-6.50004"
       id="path6" /><path
       style="fill:none;stroke:#000000;stroke-width:0.776757;stroke-linecap:round;stroke-linejoin:round;stroke-dasharray:none;stroke-opacity:1"
       d="m 78.0539,130.12735 c -2.256391,0.37642 -7.206728,-2.92363 -3.777949,-5.44199"
       id="path7" /><path
       style="fill:none;stroke:#000000;stroke-width:0.776757;stroke-linecap:round;stroke-linejoin:round;stroke-dasharray:none;stroke-opacity:1"
       d="m 81.180484,129.22034 c -2.868352,1.1496 -8.23814,-4.10679 -4.168778,-6.65127"
       id="path8" /><path
       style="fill:none;stroke:#000000;stroke-width:0.776757;stroke-linecap:round;stroke-linejoin:round;stroke-dasharray:none;stroke-opacity:1"
       d="m 82.483223,129.67383 c -2.717268,-3.1105 -0.422592,-7.69828 2.084387,-9.82572"
       id="path9" /><path
       style="fill:none;stroke:#000000;stroke-width:0.776757;stroke-linecap:round;stroke-linejoin:round;stroke-dasharray:none;stroke-opacity:1"
       d="m 84.046515,127.85987 c 3.274558,-1.21509 7.030719,-4.61888 7.130557,-8.78346 l -0.237289,-0.14909 -0.379613,0.0139"
       id="path10" /><path
       style="fill:none;stroke:#000000;stroke-width:0.776757;stroke-linecap:round;stroke-linejoin:round;stroke-dasharray:none;stroke-opacity:1"
       d="m 88.475834,127.70869 c 3.142133,-1.14085 7.364486,-4.30912 6.513706,-8.76758"
       id="path11" /><path
       style="fill:none;stroke:#000000;stroke-width:0.776757;stroke-linecap:round;stroke-linejoin:round;stroke-dasharray:none;stroke-opacity:1"
       d="m 91.472141,127.85987 c 3.04827,0.0327 7.746064,-5.11596 5.992661,-7.40715"
       id="path12" /><path
       style="fill:none;stroke:#000000;stroke-width:0.776757;stroke-linecap:round;stroke-linejoin:round;stroke-dasharray:none;stroke-opacity:1"
       d="m 93.817078,128.46452 c 3.103881,1.25771 9.492282,-5.43682 5.97347,-6.60913 l -0.335035,0.45774 -0.166925,0.55828"
       id="path13" /><path
       style="fill:none;stroke:#000000;stroke-width:0.776757;stroke-linecap:round;stroke-linejoin:round;stroke-dasharray:none;stroke-opacity:1"
       d="m 98.37667,129.52268 c 2.30344,1.70337 8.21427,-6.37846 4.5596,-5.29079"
       id="path14" /><path
       style="fill:none;stroke:#000000;stroke-width:0.776757;stroke-linecap:round;stroke-linejoin:round;stroke-dasharray:none;stroke-opacity:1"
       d="m 99.809686,130.73199 c 3.532464,2.58675 8.103194,-0.43541 9.510014,-4.53494"
       id="path15" /><path
       style="fill:none;stroke:#000000;stroke-width:0.776757;stroke-linecap:round;stroke-linejoin:round;stroke-dasharray:none;stroke-opacity:1"
       d="m 102.41517,132.99947 c 3.24475,1.57352 7.96005,0.16058 9.24947,-3.93031"
       id="path16" /><path
       style="fill:none;stroke:#000000;stroke-width:0.776757;stroke-linecap:round;stroke-linejoin:round;stroke-dasharray:none;stroke-opacity:1"
       d="m 107.10504,134.96463 c 2.97285,0.91506 6.15848,-1.19549 7.5559,-4.23264"
       id="path17" /><path
       style="fill:none;stroke:#000000;stroke-width:0.776757;stroke-linecap:round;stroke-linejoin:round;stroke-dasharray:none;stroke-opacity:1"
       d="m 66.850322,144.79036 c -2.661426,-0.51475 -3.96911,2.78777 -5.732056,4.38376"
       id="path18" /><path
       style="fill:none;stroke:#000000;stroke-width:0.776757;stroke-linecap:round;stroke-linejoin:round;stroke-dasharray:none;stroke-opacity:1"
       d="m 69.586081,145.9997 c -1.569737,0.84215 -4.593019,2.9785 -2.735759,5.29078"
       id="path19" /><path
       style="fill:none;stroke:#000000;stroke-width:0.776757;stroke-linecap:round;stroke-linejoin:round;stroke-dasharray:none;stroke-opacity:1"
       d="m 72.202512,147.64345 c -1.316769,2.07086 -3.160662,4.15856 -2.996305,6.95361"
       id="path20" /><path
       style="fill:none;stroke:#000000;stroke-width:0.776757;stroke-linecap:round;stroke-linejoin:round;stroke-dasharray:none;stroke-opacity:1"
       d="m 77.934575,149.60227 c -1.169541,2.48328 -2.607561,4.78423 -4.168774,6.95359"
       id="path21" /><path
       style="fill:none;stroke:#000000;stroke-width:0.776757;stroke-linecap:round;stroke-linejoin:round;stroke-dasharray:none;stroke-opacity:1"
       d="m 83.395143,148.26718 c -2.453833,1.75738 -4.256851,5.99659 -2.475211,9.06992"
       id="path22" /><path
       style="fill:none;stroke:#000000;stroke-width:0.776757;stroke-linecap:round;stroke-linejoin:round;stroke-dasharray:none;stroke-opacity:1"
       d="m 84.437337,149.77884 c 3.184799,1.78168 1.792444,7.21061 -0.911916,8.61641"
       id="path23" /><path
       style="fill:none;stroke:#000000;stroke-width:0.776757;stroke-linecap:round;stroke-linejoin:round;stroke-dasharray:none;stroke-opacity:1"
       d="m 88.606109,149.32533 c 3.161566,-1.76666 3.779168,3.93948 1.954111,5.74429"
       id="path24" /><path
       style="fill:none;stroke:#000000;stroke-width:0.776757;stroke-linecap:round;stroke-linejoin:round;stroke-dasharray:none;stroke-opacity:1"
       d="m 91.341868,147.81367 c 3.592888,-0.13835 3.378721,5.40296 2.344932,8.01177"
       id="path25" /><path
       style="fill:none;stroke:#000000;stroke-width:0.776757;stroke-linecap:round;stroke-linejoin:round;stroke-dasharray:none;stroke-opacity:1"
       d="m 94.468447,147.81367 c 3.208591,-3.09465 6.449673,4.17348 3.908223,6.65128"
       id="path26" /><path
       style="fill:none;stroke:#000000;stroke-width:0.776757;stroke-linecap:round;stroke-linejoin:round;stroke-dasharray:none;stroke-opacity:1"
       d="m 98.116121,144.03454 c 3.404769,-0.89072 7.831099,4.28987 4.950429,7.70944"
       id="path27" /><path
       style="fill:none;stroke:#000000;stroke-width:0.776757;stroke-linecap:round;stroke-linejoin:round;stroke-dasharray:none;stroke-opacity:1"
       d="m 99.288588,142.82522 c 3.286472,-1.34545 8.523682,3.14284 5.862342,7.10478"
       id="path28" /><path
       style="fill:none;stroke:#000000;stroke-width:0.776757;stroke-linecap:round;stroke-linejoin:round;stroke-dasharray:none;stroke-opacity:1"
       d="m 103.19682,139.0461 c 3.48009,-1.58623 9.97836,1.79697 8.33755,6.65127"
       id="path29" /><path
       style="display:inline;fill:#000000;stroke:#000000;stroke-width:0.256111;stroke-linecap:round;stroke-linejoin:round;stroke-dasharray:none;stroke-opacity:1"
       d="m 83.692157,141.24042 c -1.230734,-0.17077 -3.046791,-1.02802 -3.642689,-1.71947 -0.432664,-0.50204 -0.6332,-1.22209 -0.545984,-1.9604 0.140013,-1.18533 1.10285,-2.74324 2.139881,-3.46239 0.554653,-0.38466 1.554414,-0.75297 2.043856,-0.75297 0.215099,0 0.170395,0.0555 -0.253694,0.31477 -0.773448,0.47294 -1.420396,1.05338 -2.013805,1.8068 -0.600854,0.76284 -0.736429,1.07475 -0.599236,1.37855 0.179985,0.39854 0.487463,0.21127 1.396774,-0.85075 0.739081,-0.86322 1.070558,-1.15211 1.784271,-1.55501 1.162393,-0.65617 2.019434,-0.8974 2.943915,-0.82855 1.338842,0.0998 2.215223,0.91601 2.621319,2.44165 0.171911,0.64584 0.180273,0.81938 0.06953,1.44295 -0.236289,1.3305 -0.94031,2.3333 -2.125478,3.02752 -1.045195,0.61223 -2.545269,0.89399 -3.818657,0.7173 z"
       id="path31" /></g><g
     inkscape:groupmode="layer"
     id="layer3"
     inkscape:label="Layer 3"
     style="display:inline"
     transform="translate(-58.109628,-114.01699)"><path
       style="fill:#ff6600;stroke:#000000;stroke-width:0.776757;stroke-linecap:round;stroke-linejoin:round;stroke-dasharray:none;stroke-opacity:1"
       id="path30"
       d="m 85.679584,128.92306 c -0.269315,0.0201 -0.537636,0.0517 -0.806113,0.083 -0.356023,0.041 -0.713084,0.0681 -1.070236,0.0916 -0.385244,0.0266 -0.771223,0.0341 -1.156481,0.0597 -0.394786,0.0304 -0.78955,0.0587 -1.183399,0.10274 -0.380158,0.0384 -0.75951,0.0884 -1.137046,0.15306 -0.368764,0.0557 -0.733154,0.14058 -1.097774,0.22392 -0.395133,0.0944 -0.78576,0.2134 -1.173513,0.34218 -0.349113,0.1067 -0.684297,0.26325 -1.019348,0.4171 -0.293334,0.13409 -0.572455,0.30397 -0.84749,0.48163 -0.243392,0.16128 -0.470183,0.35006 -0.690708,0.54982 -0.21678,0.19756 -0.421613,0.41298 -0.617555,0.6378 -0.183624,0.21696 -0.338737,0.46155 -0.4849,0.71301 -0.155589,0.24771 -0.27242,0.52164 -0.387383,0.79622 -0.113063,0.26642 -0.200546,0.54541 -0.276893,0.82838 -0.06314,0.27591 -0.132362,0.54987 -0.192051,0.82684 -0.05893,0.27952 -0.09876,0.56368 -0.133348,0.84843 -0.02561,0.29198 -0.06612,0.58199 -0.09219,0.8738 -0.02173,0.29552 -0.03043,0.59201 -0.03907,0.88832 -0.0078,0.30224 0.0033,0.6057 0.02649,0.9068 0.01879,0.29476 0.06458,0.58446 0.122213,0.87181 0.06255,0.26853 0.131513,0.53512 0.215472,0.79573 0.0807,0.25402 0.177874,0.50012 0.280492,0.74306 0.10975,0.25643 0.236622,0.5013 0.367317,0.74386 0.141625,0.23991 0.278782,0.48263 0.424206,0.71949 0.156455,0.23959 0.321984,0.47145 0.498229,0.69178 0.172913,0.21887 0.364236,0.41579 0.549003,0.62057 0.187891,0.19819 0.372684,0.40053 0.564747,0.59329 0.187101,0.19922 0.376792,0.39516 0.572931,0.58236 0.211649,0.19978 0.43209,0.3867 0.653139,0.57216 0.2271,0.19287 0.470286,0.35675 0.709403,0.52804 0.250914,0.17577 0.509564,0.33597 0.767293,0.49769 0.267503,0.16987 0.54646,0.31167 0.826103,0.45173 0.299149,0.15516 0.610033,0.27323 0.921831,0.3882 0.35929,0.13245 0.72708,0.22815 1.097299,0.30844 0.401588,0.0827 0.807165,0.13423 1.212807,0.18097 0.401272,0.0532 0.805019,0.0597 1.208361,0.0654 0.396435,-0.01 0.793042,-0.0244 1.18881,-0.0534 0.447513,-0.0298 0.891642,-0.10147 1.335957,-0.16721 0.44867,-0.0709 0.895601,-0.15373 1.342305,-0.23937 0.406549,-0.0835 0.81154,-0.17338 1.212287,-0.28884 0.430756,-0.12314 0.859721,-0.25498 1.283215,-0.40856 0.435619,-0.15346 0.861154,-0.34058 1.279218,-0.54905 0.385799,-0.20325 0.759083,-0.43733 1.124561,-0.68564 0.32399,-0.22645 0.637863,-0.47207 0.940113,-0.73584 0.288894,-0.2576 0.554588,-0.54784 0.820875,-0.83575 0.242041,-0.26324 0.464553,-0.54795 0.678606,-0.84157 0.191419,-0.26161 0.351087,-0.54881 0.503487,-0.84185 0.129582,-0.27942 0.237885,-0.57151 0.333959,-0.86836 0.09059,-0.29231 0.17651,-0.58602 0.248577,-0.88525 0.08085,-0.29113 0.125419,-0.5932 0.165695,-0.89477 0.03617,-0.29877 0.06902,-0.5986 0.08039,-0.90013 0.01478,-0.29257 0.03191,-0.58497 0.0461,-0.87758 0.01342,-0.28361 0.0227,-0.56746 0.0305,-0.85134 0.01524,-0.29142 -2.6e-4,-0.58272 -0.01328,-0.87377 -0.01443,-0.29697 -0.04149,-0.59376 -0.07755,-0.88828 -0.03133,-0.29478 -0.08647,-0.5839 -0.15152,-0.87073 -0.06911,-0.27386 -0.16585,-0.53784 -0.270609,-0.79566 -0.107927,-0.26131 -0.237068,-0.50712 -0.38116,-0.74331 -0.163211,-0.2708 -0.358368,-0.51165 -0.551918,-0.75294 -0.200421,-0.25235 -0.417453,-0.48587 -0.63887,-0.71299 -0.202756,-0.22841 -0.424741,-0.43094 -0.649905,-0.62824 -0.24105,-0.20578 -0.497597,-0.38523 -0.762845,-0.54534 -0.28857,-0.18605 -0.599369,-0.31547 -0.910711,-0.43904 -0.342958,-0.12669 -0.691705,-0.23259 -1.040946,-0.3334 -0.357836,-0.10179 -0.721536,-0.17005 -1.086009,-0.22998 -0.386696,-0.0524 -0.772314,-0.11451 -1.159034,-0.16667 -0.401932,-0.0622 -0.807188,-0.0756 -1.211994,-0.0874 -0.401986,-0.0179 -0.803728,-0.01 -1.20561,0.005 -0.405187,0.0169 -0.810453,0.0309 -1.215779,0.0426 -0.268419,0.0154 -0.135648,0.006 -0.398318,0.0233 0,0 9.38e-4,7.3e-4 9.38e-4,7.3e-4 v 0 c 0.272327,-0.005 0.136375,10e-5 0.407871,-0.0154 0.405336,-0.0109 0.810604,-0.0258 1.215814,-0.0426 0.401868,-0.0154 0.803589,-0.0226 1.205565,-0.004 0.404853,0.0123 0.81014,0.0252 1.212103,0.0877 0.386796,0.0519 0.772443,0.1145 1.1592,0.16687 0.364325,0.0598 0.727905,0.1282 1.085604,0.22982 0.349115,0.10136 0.698103,0.20607 1.040882,0.33351 0.311498,0.12409 0.622616,0.25347 0.911355,0.43992 0.257173,0.15529 0.505606,0.32966 0.739266,0.52929 0.2257,0.19767 0.448419,0.40029 0.651765,0.629 0.221849,0.22727 0.439394,0.46077 0.640118,0.71345 0.194026,0.2412 0.389433,0.48219 0.552833,0.75325 0.14426,0.23643 0.27397,0.48233 0.382388,0.74373 0.105544,0.25797 0.202786,0.52235 0.272507,0.79652 0.06564,0.28705 0.121597,0.57631 0.152975,0.8715 0.03664,0.29456 0.06385,0.59146 0.07814,0.88859 0.01342,0.29122 0.0292,0.58269 0.0143,0.87433 -0.0071,0.28406 -0.01595,0.56811 -0.02967,0.85188 -0.01406,0.29268 -0.03085,0.58516 -0.04574,0.87779 -0.01178,0.30154 -0.04421,0.60135 -0.08039,0.90011 -0.04027,0.30157 -0.08484,0.60364 -0.165683,0.89476 -0.07205,0.29922 -0.157988,0.59293 -0.248573,0.88525 -0.09606,0.29683 -0.204373,0.58893 -0.333946,0.86833 -0.152399,0.29304 -0.312061,0.58023 -0.503477,0.84181 -0.214051,0.29363 -0.436561,0.57834 -0.678597,0.84159 -0.266285,0.28789 -0.531979,0.57815 -0.820872,0.83573 -0.302245,0.26376 -0.616116,0.50936 -0.940102,0.73582 -0.366567,0.24668 -0.73942,0.48239 -1.125947,0.68454 -0.418076,0.20813 -0.843564,0.39493 -1.278808,0.54933 -0.423498,0.15393 -0.85264,0.28536 -1.283547,0.40828 -0.400687,0.11492 -0.805384,0.20585 -1.211808,0.28921 -0.446529,0.0856 -0.893223,0.16898 -1.341703,0.23985 -0.444522,0.0648 -0.88875,0.13683 -1.336338,0.16687 -0.395624,0.0285 -0.792073,0.0435 -1.188336,0.0538 -0.403855,-0.005 -0.807985,-0.0141 -1.20981,-0.0665 -0.405514,-0.0456 -0.8108,-0.0978 -1.212157,-0.18046 -0.37044,-0.0805 -0.738511,-0.17647 -1.098017,-0.30913 -0.311955,-0.11505 -0.623033,-0.23325 -0.922295,-0.38866 -0.279913,-0.14054 -0.559145,-0.28284 -0.827101,-0.45272 -0.254771,-0.1598 -0.510491,-0.31802 -0.75851,-0.49174 -0.238928,-0.17132 -0.482011,-0.33505 -0.70899,-0.52782 -0.221054,-0.1855 -0.441577,-0.37234 -0.653239,-0.57217 -0.196111,-0.18728 -0.385801,-0.38329 -0.57305,-0.58239 -0.191627,-0.19278 -0.376226,-0.39482 -0.563846,-0.59282 -0.184685,-0.20463 -0.376072,-0.40127 -0.548618,-0.62034 -0.176529,-0.22041 -0.342218,-0.4525 -0.49908,-0.69211 -0.146035,-0.23659 -0.283148,-0.47958 -0.424775,-0.71973 -0.131266,-0.24237 -0.257761,-0.48776 -0.36796,-0.74414 -0.103785,-0.24261 -0.200475,-0.48941 -0.281548,-0.74355 -0.08471,-0.2603 -0.152796,-0.5274 -0.215679,-0.79579 -0.05754,-0.28756 -0.104939,-0.57711 -0.122952,-0.87217 -0.02318,-0.30107 -0.0342,-0.6045 -0.0263,-0.90668 0.0086,-0.2963 0.01752,-0.59278 0.03907,-0.88828 0.0263,-0.29173 0.06705,-0.58162 0.09251,-0.8736 0.03454,-0.28476 0.0741,-0.56891 0.133403,-0.84836 0.05946,-0.27707 0.129076,-0.5509 0.191824,-0.82696 0.0774,-0.28252 0.164118,-0.56175 0.277097,-0.8282 0.115227,-0.2744 0.232272,-0.5481 0.38768,-0.79595 0.146282,-0.2513 0.301153,-0.49612 0.484874,-0.71294 0.195692,-0.22508 0.400437,-0.44058 0.617395,-0.63787 0.220662,-0.19945 0.447383,-0.38832 0.690597,-0.54984 0.274968,-0.17773 0.55415,-0.34735 0.847401,-0.48162 0.335087,-0.15344 0.670248,-0.3098 1.019024,-0.41731 0.387753,-0.12875 0.778389,-0.24789 1.173568,-0.34212 0.364665,-0.0831 0.729048,-0.16811 1.097831,-0.22384 0.377451,-0.0646 0.756706,-0.11437 1.136761,-0.15329 0.393918,-0.0436 0.788702,-0.0725 1.183549,-0.10263 0.385223,-0.0257 0.771194,-0.0331 1.156419,-0.0597 0.357236,-0.0235 0.714377,-0.0505 1.070503,-0.0914 0.268609,-0.0316 0.537045,-0.0635 0.806586,-0.0826 z" /><path
       style="fill:#808080;stroke:#000000;stroke-width:0.14193;stroke-linecap:round;stroke-linejoin:round;stroke-dasharray:none;stroke-opacity:1"
       d="m 83.450058,147.62404 c -0.11001,-0.015 -0.443153,-0.0583 -0.740316,-0.0959 -1.226139,-0.15543 -2.383686,-0.56352 -3.477281,-1.22586 -1.339067,-0.81103 -2.085567,-1.45677 -3.333277,-2.88332 -1.553289,-1.77593 -2.22161,-3.40934 -2.22161,-5.42969 0,-2.14225 0.492558,-4.18077 1.287531,-5.32868 0.621654,-0.89763 2.033159,-1.90971 2.850805,-2.04408 0.209763,-0.0345 0.450993,-0.12039 0.536073,-0.19105 0.239785,-0.19901 1.360361,-0.45095 2.544973,-0.57221 l 1.07586,-0.11011 0.15597,0.17339 c 0.229452,0.25508 0.549129,0.24358 0.681004,-0.0246 0.05354,-0.10888 0.135923,-0.21585 0.183079,-0.23777 0.04714,-0.0219 1.255849,-0.0524 2.686002,-0.0678 3.351004,-0.0359 4.6426,0.0999 6.335271,0.66609 1.245613,0.41667 2.084427,1.03574 3.124802,2.30626 1.067804,1.30401 1.364598,2.29503 1.3558,4.52717 -0.01192,3.0391 -0.417698,4.74851 -1.446292,6.09359 -1.862931,2.43613 -4.288857,3.65619 -8.512346,4.28107 -0.845821,0.12518 -2.662746,0.22133 -3.086048,0.16335 z m 2.321339,-6.29664 c 1.703943,-0.343 2.934757,-1.20676 3.601914,-2.52774 0.219357,-0.43432 0.419208,-1.181 0.457391,-1.70887 0.07944,-1.09827 -0.579877,-2.58086 -1.393881,-3.1344 -1.185731,-0.80631 -2.829036,-0.6668 -4.603469,0.39083 -0.663818,0.39567 -0.985444,0.67979 -1.783441,1.57553 -0.651774,0.73159 -0.911045,0.95957 -1.030714,0.90628 -0.256271,-0.11409 0.09695,-0.78224 0.865547,-1.63718 0.493437,-0.54887 0.98728,-0.97173 1.574162,-1.34789 0.433937,-0.27813 0.533419,-0.39089 0.482009,-0.54634 -0.09144,-0.2765 -1.425858,0.0649 -2.275365,0.58204 -0.508584,0.30963 -1.478466,1.44897 -1.802617,2.1176 -0.393609,0.81187 -0.49496,1.19813 -0.494485,1.88453 6.24e-4,0.81184 0.151317,1.25659 0.598292,1.76502 0.534716,0.60823 2.015816,1.37663 3.22615,1.67374 0.546237,0.13408 1.928164,0.13776 2.578507,0.006 z"
       id="path32" /></g><g
     inkscape:groupmode="layer"
     id="layer4"
     inkscape:label="Layer 4"
     style="opacity:0.864407;filter:url(#filter47)"
     transform="translate(-58.109628,-114.01699)"><path
       style="display:inline;fill:#ffffff;stroke:#ffffff;stroke-width:0.776757;stroke-linecap:round;stroke-linejoin:round"
       d="m 84.576127,130.44948 c 0.08821,-0.0204 0.175203,-0.05 0.264601,-0.0615 0.199235,-0.0256 0.255763,0.0289 0.423359,0.0615 0.174457,0.0337 0.351637,0.027 0.529201,0.0615 0.110037,0.0212 0.417306,0.0649 0.317518,0.12271 -0.08045,0.0467 -0.181087,0.0226 -0.264598,0.0615 -0.222796,0.10337 -0.455953,0.1108 -0.68796,0.18421 -0.249478,0.079 -0.443543,0.16461 -0.687962,0.24563 -0.144474,0.048 -0.342453,0.0807 -0.476278,0.18422 -0.04136,0.0319 0.02218,0.17233 0.05292,0.18421 0.268521,0.1038 0.914319,-0.0615 1.217158,-0.0615 7e-6,0 -0.211636,0 -0.211677,0 -0.04999,0 -0.635043,0.0594 -0.635043,0.24563 0,0.0204 0.03714,-0.01 0.05293,0 0.215081,0.12477 0.433224,0.12271 0.687963,0.12271 0.05579,0 -0.104643,0.0456 -0.15876,0.0615 -0.04639,0.0137 -0.582123,0.0776 -0.582123,0.18422 0,0.16937 0.4833,0.18421 0.582123,0.18421 0.264247,0 -0.476282,0.29384 -0.476282,0.36844 0,0.0805 0.655832,0.0615 0.740879,0.0615"
       id="path1" /><path
       style="display:inline;fill:#ffffff;stroke:#ffffff;stroke-width:0.776757;stroke-linecap:round;stroke-linejoin:round"
       d="m 87.063366,133.02856 c 0.321976,0.277 0.284803,0.10765 0.582122,0.24562 0.02314,0.0109 0.02846,0.0557 0.05293,0.0615 0.43976,0.102 0.0085,-0.10656 0.370439,0.0615 0.03663,0.0169 0.145283,0.0615 0.10585,0.0615 -0.03295,0 -0.616983,-0.17375 -0.635038,-0.18422 -0.04462,-0.0258 -0.06025,-0.0994 -0.105829,-0.12272 -0.117364,-0.0606 -0.441675,0.001 -0.370442,-0.12272 0.08862,-0.15424 0.317337,-0.043 0.476284,-0.0615 0.206444,-0.0239 -0.278656,0.13669 0.317516,-0.12272 0.413616,-0.17999 -0.134717,0.0559 0.370443,-0.0615 0.02447,-0.005 0.02975,-0.0507 0.05293,-0.0615 0.204219,-0.0948 0.327674,-0.0674 0.529199,-0.18421 0.01579,-0.01 0.05293,0.0204 0.05293,0 0,-0.14038 -0.292259,-0.12272 -0.370438,-0.12272 -0.07056,0 -0.211681,-0.0819 -0.211681,0 0,0.0374 0.951792,-0.0588 1.005482,-0.24562 0.0806,-0.2806 -0.476283,-0.36407 -0.476283,-0.36845 0,-0.0597 0.463031,-0.16227 0.529202,-0.18422 0.02495,-0.008 0.370439,-0.0511 0.370439,-0.18421 0,-0.35119 -0.168339,-0.32926 -0.211679,-0.42984 -0.02229,-0.0518 0.05952,-0.10135 0.10583,-0.12272 0.147673,-0.0686 0.829279,-0.22537 0.89964,-0.30703 0.182009,-0.21118 -0.602159,-0.40657 -0.7938,-0.18422 -0.0056,0.006 0.150294,0.113 0.158761,0.12272"
       id="path2" /><path
       style="display:inline;fill:#ffffff;stroke:#ffffff;stroke-width:0.776757;stroke-linecap:round;stroke-linejoin:round"
       d="m 82.035967,133.58121 c -0.342328,0.25033 -0.743358,0.32046 -1.111321,0.49125 -0.06754,0.0314 -0.211679,0.14581 -0.211679,0.0615 0,-0.11026 0.177286,-0.0794 0.264598,-0.12272 0.171396,-0.0852 0.348151,-0.2545 0.529202,-0.30704 0.174521,-0.0506 0.586085,0.0752 0.5292,-0.12271 -0.112338,-0.39108 -0.917319,-0.2456 -1.164242,-0.12272 -0.05845,0.029 -0.09971,0.0953 -0.158758,0.12272 -0.04602,0.0214 -0.355572,-0.0529 -0.158761,0.0615 0.08067,0.0468 0.249673,-0.0299 0.317519,-0.0615 0.441646,-0.205 0.913446,-0.39034 1.323002,-0.67549 0.07587,-0.0527 0.337895,-0.22197 0.264601,-0.30701 -0.06097,-0.0709 -1.491189,0.32845 -1.640522,0.36843 -0.158468,0.0424 -0.319906,0.071 -0.47628,0.12272 -0.03793,0.0123 -0.145284,0.0615 -0.10583,0.0615 0.204301,0 1.880443,-0.57716 1.74636,-1.0439 -0.03486,-0.12134 -0.404785,-0.0635 -0.423357,-0.0615 -0.08536,0.01 -1.65299,0.45878 -1.693441,0.55265 -0.08472,0.19661 0.735212,-0.18183 0.740879,-0.18422 0.137672,-0.058 1.058402,-0.41432 1.058402,-0.67547 0,-0.0579 -0.05633,-0.13011 -0.105829,-0.12272 -0.428798,0.0622 -0.87697,0.29576 -1.270082,0.49126 -0.01823,0.01 -0.296829,0.0748 -0.31752,0.12272 -0.06411,0.14881 0.937603,-0.28033 0.846719,-0.49125 -0.08936,-0.20738 -1.200501,0.15029 -1.375919,0.18424 -0.220735,0.0426 -0.370441,0.21136 -0.370441,0.12271 0,-0.0459 0.07056,-0.041 0.105829,-0.0615 0.253563,-0.14711 0.517677,-0.28405 0.740879,-0.49125 0.09689,-0.09 0.200372,-0.23354 0.158762,-0.24562 -0.310556,-0.0901 -0.705447,0.0533 -1.005481,0.12272 -0.06919,0.016 -0.144741,-0.0258 -0.211679,0 -0.02368,0.01 -0.07713,0.0685 -0.05293,0.0615 0.164437,-0.0478 0.589308,-0.31121 0.687961,-0.36844 0.07056,-0.0408 0.146041,-0.072 0.211681,-0.12273 0.08303,-0.0643 0.151806,-0.153 0.211678,-0.24563 0.258073,-0.39928 -0.582121,0.004 -0.582121,0.24563"
       id="path33" /><path
       style="display:inline;fill:#ffffff;stroke:#ffffff;stroke-width:0.776757;stroke-linecap:round;stroke-linejoin:round"
       d="m 78.966607,135.91466 c -0.07056,0.0204 -0.229321,-0.0204 -0.211681,0.0615 0.01765,0.0819 0.269866,-0.11203 0.211681,-0.0615 -0.126226,0.10984 -0.284848,0.15796 -0.423362,0.24562 -0.160843,0.10178 -0.266342,0.25912 -0.423358,0.36844 -0.09689,0.0676 -0.13232,0.13818 -0.21168,0.18422 -0.02232,0.0123 -0.07056,0.0819 -0.05293,0.0615 0.203343,-0.23596 0.453038,-0.41149 0.635039,-0.67547 0.03973,-0.0576 0.0455,-0.16089 0.105829,-0.18423 0.117146,-0.0452 0.425663,0.12806 0.370441,0 -0.25297,-0.58707 -0.565079,0.0832 -0.635041,0.24563 -0.01575,0.0365 0.01579,0.0861 0,0.12272 -0.01109,0.0258 -0.05292,0.0325 -0.05292,0.0615 0,0.0239 0.07422,0.0981 0.105829,0.0615 0.137154,-0.15913 -0.04477,-0.82424 -0.211681,-0.92109 -0.0839,-0.0487 -0.292776,0.11656 -0.370438,0.18422 -0.199781,0.17388 -0.611275,0.98251 -0.635039,0.98251 -0.07889,0 0.07056,-0.16376 0.105829,-0.24564 0.03977,-0.0923 0.409501,-1.1667 0.317519,-1.1667 -0.242211,0 -0.653669,0.7386 -0.7938,0.98249 -0.121816,0.21203 -0.172429,0.36051 -0.15876,0.36843 0.18081,0.10496 0.07718,-0.0109 0.105829,-0.0615 0.196889,-0.3427 0.01942,0.13913 0.211681,-0.30704 0.140632,-0.32638 0.211681,-0.74876 0.211681,-1.10531 0,-0.0201 0.01617,-0.21629 -0.05293,-0.18422 -0.337824,0.1568 -0.575705,0.59762 -0.84672,0.8597 -0.04886,0.0471 -0.11379,0.0706 -0.158762,0.12272 -0.04496,0.0523 -0.06087,0.13203 -0.105829,0.18423 -0.04475,0.0519 -0.211681,0.0738 -0.211681,0.18421 0,0.0458 0.07201,-0.0378 0.105829,-0.0615 0.200803,-0.13981 0.377242,-0.34694 0.529199,-0.55267 0.214375,-0.2902 0.309498,-0.55821 0.476282,-0.92109 0.05507,-0.11985 0.13443,-0.28867 0.158761,-0.42985 0.01038,-0.0603 0.05293,-0.18421 0,-0.18421 -0.205664,0 -0.973849,0.97736 -1.164242,1.16671 -0.05682,0.0566 -0.21168,0.12273 -0.15876,0.18422 0.06237,0.0725 0.149315,-0.11176 0.21168,-0.18422 0.230869,-0.26788 0.52885,-0.52735 0.68796,-0.85968 0.03532,-0.0738 0.02427,-0.16805 0.05293,-0.24562 0.02505,-0.0678 0.08222,-0.11575 0.10583,-0.18422 0.0201,-0.0584 -0.02064,-0.2883 -0.05293,-0.30703 -0.02737,-0.0159 -0.309975,0.13744 -0.370439,0.18421 -0.232069,0.17952 -0.462395,0.3623 -0.687963,0.55266 -0.03728,0.0314 -0.632418,0.61407 -0.635039,0.61407 -0.01765,0 -0.0079,-0.0431 0,-0.0615 0.105713,-0.24531 0.325779,-0.31662 0.476281,-0.49125 0.132595,-0.15385 0.237845,-0.3374 0.370439,-0.49125 0.412697,-0.47888 0.01489,0.17235 0.423361,-0.49125 0.03242,-0.0527 0.104707,-0.20827 0.05293,-0.18421 -0.3127,0.14514 -0.695838,0.54293 -0.95256,0.79828 -0.115215,0.11449 -0.263139,0.18251 -0.370442,0.30703 -0.160092,0.18577 -0.3602,0.54375 0.05293,0.18421 0.0974,-0.0847 0.555792,-0.66003 0.317521,-0.79828 -0.264377,-0.15338 -0.865196,0.2678 -1.005479,0.55266 -0.04713,0.0957 -0.07056,0.20467 -0.10583,0.30704"
       id="path35" /><path
       style="display:inline;fill:#ffffff;stroke:#ffffff;stroke-width:0.776757;stroke-linecap:round;stroke-linejoin:round"
       d="m 75.579724,142.73077 c -0.08821,-0.12272 -0.176397,-0.24564 -0.264598,-0.36843 -0.01765,-0.0408 -0.02924,-0.0861 -0.05293,-0.12273 -0.03247,-0.0503 -0.294604,-0.39501 -0.21168,-0.49125 0.04711,-0.0547 0.258521,0.14511 0.317521,0.18422 0.958687,0.63569 -0.348013,-0.22936 0.476279,0.36845 0.344735,0.25 0.731198,0.45212 1.0584,0.73688 0.04565,0.0397 0.211681,0.18903 0.211681,0.24564 0,0.0397 -0.220825,-0.1922 -0.423362,-0.36846 -0.160899,-0.14002 -0.33406,-0.26481 -0.476278,-0.42984 -0.06237,-0.0724 -0.09639,-0.17326 -0.158761,-0.24564 -0.0279,-0.0323 -0.07056,-0.0408 -0.105829,-0.0615 -0.105829,-0.12272 -0.218955,-0.23772 -0.317521,-0.36843 -0.02596,-0.0344 -0.02503,-0.0905 -0.05293,-0.12273 -0.0259,-0.03 -0.211677,-0.15573 -0.211677,-0.2456 0,-0.11039 0.319829,0.0977 0.370437,0.12272 0.237312,0.11793 1.206019,1.10531 1.323003,1.10531 1.2e-5,0 -0.211579,-0.24548 -0.211682,-0.24562 -0.0806,-0.11684 -0.491285,-0.76345 -0.42336,-0.92111 0.05879,-0.13641 0.04704,-0.0272 0.105829,0 0.05504,0.2262 0.181089,0.0226 0.264601,0.0615 0.306271,0.14217 0.545005,0.37348 0.793799,0.61406 0.157563,0.15235 0.423499,0.12313 0.529203,0.36845 0.0079,0.0182 0.01765,0.0615 0,0.0615 -0.10118,0 -0.02761,-0.0861 -0.05293,-0.12273 -0.06233,-0.0905 -0.146738,-0.15771 -0.211679,-0.24562 -0.108462,-0.14683 -1.11132,-1.4555 -1.11132,-1.53515 0,-0.0321 0.301,0.1566 0.529202,0.36843 0.08504,0.0789 0.672126,0.67547 0.793797,0.67547 0.0046,0 -0.0066,-0.47597 0,-0.49125 0.05813,-0.13491 0.170714,-0.0753 0.2646,-0.18422 0.01247,-0.0145 -0.04503,0.0182 -0.05293,0 -0.01576,-0.0365 0.01109,-0.084 0,-0.12272 -0.0079,-0.0274 -0.04502,-0.0338 -0.05293,-0.0615 -0.01673,-0.0583 0,-0.12272 0,-0.18421 0,-0.0408 -0.03156,-0.10454 0,-0.12273 0.16083,-0.0933 0.487174,0.11437 0.635042,0 0.258877,-0.20025 0.311214,-0.24561 0.63504,-0.24561"
       id="path36" /><path
       style="display:inline;fill:#ffffff;stroke:#ffffff;stroke-width:0.776757;stroke-linecap:round;stroke-linejoin:round"
       d="m 77.908207,144.51154 c 0.397544,-0.004 0.563597,0.4227 0.89964,0.55267"
       id="path37" /><path
       style="display:inline;fill:#ffffff;stroke:#ffffff;stroke-width:0.776757;stroke-linecap:round;stroke-linejoin:round"
       d="m 79.495807,145.61686 c -0.277065,0.16826 -0.306324,0 -0.5292,0 -0.05292,0 -0.15876,0.0615 -0.15876,0 0,-0.0289 0.02795,-0.0615 0.05293,-0.0615 0.212413,0 0.423359,0.041 0.63504,0.0615 z"
       id="path38" /><path
       style="display:inline;fill:#ffffff;stroke:#ffffff;stroke-width:0.776757;stroke-linecap:round;stroke-linejoin:round"
       d="m 79.919165,144.9414 c -0.254308,-0.26183 -0.683906,-0.0991 -0.952558,-0.30704 -0.06051,-0.0467 0.0015,-0.18595 0.05293,-0.24561 0.03535,-0.041 0.734049,-0.40674 0.7938,-0.42985 0.04005,-0.0155 0.236876,-0.12368 0.158757,-0.18423 -0.152387,-0.11779 -0.225898,-0.005 -0.370437,-0.0615 -0.07056,-0.0272 -0.07056,-0.0954 0,-0.12272 0.03346,-0.0123 0.07192,0.0109 0.105851,0 0.123363,-0.0408 1.309473,-0.52127 1.322998,-0.55265 0.05076,-0.11779 -0.173586,-0.0615 -0.211679,-0.0615 -0.07056,0 -0.21168,-0.0819 -0.21168,0 0,0.0957 0.658385,-0.18422 0.740881,-0.18422 0.03528,-0.20468 0.09089,-0.40602 0.105829,-0.61403 0.0065,-0.0912 -0.08089,-0.15877 -0.105829,-0.24561 -0.0734,-0.2555 0.125294,-0.34903 0.264598,-0.42986 0.02232,-0.0123 0.02797,-0.0615 0.05293,-0.0615 0.06359,0 0.101878,0.0898 0.15876,0.12272"
       id="path39" /><path
       style="display:inline;fill:#ffffff;stroke:#ffffff;stroke-width:0.776757;stroke-linecap:round;stroke-linejoin:round"
       d="m 83.041448,147.15203 c 0.08819,-0.0615 0.1764,-0.12271 0,0 z"
       id="path40" /><path
       style="display:inline;fill:#ffffff;stroke:#ffffff;stroke-width:0.776757;stroke-linecap:round;stroke-linejoin:round"
       d="m 83.306048,146.59929 c -0.03944,0.0457 -0.208657,0.0905 -0.15876,0.0615 0.238037,-0.13798 0.497547,0.0176 0.740879,-0.12271 -0.479072,0.0504 -0.714342,0.23955 -1.005479,-0.36845 -0.0053,-0.0109 0.523121,-0.3956 0.58212,-0.42984"
       id="path41" /><path
       style="display:inline;fill:#ffffff;stroke:#ffffff;stroke-width:0.776757;stroke-linecap:round;stroke-linejoin:round"
       d="m 83.941086,145.24843 c -0.05185,-0.10369 -0.699709,-0.1433 -0.582117,-0.24564 0.01594,-0.0139 0.870093,-0.51517 0.740879,-0.55264 -0.145812,-0.0422 -0.373757,0 -0.529203,0 -0.03527,0 -0.130786,0.0289 -0.105829,0 0.0913,-0.10592 0.814156,-0.3212 0.740882,-0.49125 -0.07963,-0.18484 -0.394927,-0.0284 -0.476282,-0.12272 -0.03982,-0.0462 0.67108,-0.30571 0.529202,-0.55265 -0.09844,-0.17134 -0.384602,-0.0279 -0.529202,-0.0615 -0.05602,-0.0123 -0.252308,-0.13703 -0.317517,-0.0615 -0.0862,0.1 0.254127,0.0615 0.264598,0.0615"
       id="path42" /><path
       style="display:inline;fill:#ffffff;stroke:#ffffff;stroke-width:0.776757;stroke-linecap:round;stroke-linejoin:round"
       d="m 87.592568,142.30092 c -0.141121,-0.0408 -0.278619,-0.10601 -0.423361,-0.12271 -0.09373,-0.011 -1.337374,0.58071 -1.270079,0.73687 0.0978,0.22697 1.151415,-0.15384 1.270079,-0.24562 0.146775,-0.11355 0.521211,-0.53876 0.423361,-0.36844 -0.13165,0.22913 -0.361389,0.35793 -0.529202,0.55265 -0.174283,0.20223 0.118898,0.4057 0.264602,0.42986 0.03148,0.005 0.529198,-0.0606 0.529198,0.0615 0,0.16483 -0.782261,0.65423 -0.687959,0.98251 0.08625,0.30024 0.754747,0.016 0.793799,0.0615 0.01765,0.0204 -0.03527,0.0408 -0.05293,0.0615 -0.03528,0.041 -0.06751,0.0858 -0.105829,0.12273 -0.194847,0.18841 -0.520185,0.38799 -0.582121,0.67546 -0.02883,0.13381 -0.04008,0.19167 0.05293,0.24564 0.158762,0.092 -0.105829,0.0615 0.158762,0.18421 0.200213,0.0929 0.533448,-0.15106 0.687959,-0.0615 0.06505,0.0377 -0.0204,0.17015 -0.05293,0.24563 -0.132102,0.30657 -0.211681,0.46855 -0.211681,0.79829"
       id="path43" /><path
       style="display:inline;fill:#ffffff;stroke:#ffffff;stroke-width:0.776757;stroke-linecap:round;stroke-linejoin:round"
       d="m 88.703885,140.94997 c -0.0529,-0.0819 -0.08819,-0.30702 -0.158756,-0.24561 -0.07056,0.0615 0.190422,0.1501 0.158756,0.24561 -0.07625,0.23005 -0.309316,0.34473 -0.423358,0.55265 -0.0313,0.0571 0.138926,0.39763 0.264602,0.36846 0.265405,-0.0617 0.593101,-0.13547 0.793799,-0.36846 0.0279,-0.0323 0.02503,-0.0903 0.05293,-0.12271 9.37e-4,-0.001 0.158759,-0.0751 0.158759,-0.0615 0,0.0996 -0.442427,0.65335 -0.21168,0.9211 0.03527,0.0411 0.05595,0.12272 0.105829,0.12272 0.24599,0 0.473897,-0.24288 0.63504,-0.42986 0.121363,-0.14082 -0.02076,0.0321 0.158761,-0.24564 0.01496,-0.0232 0.07787,-0.0615 0.05293,-0.0615 -0.166133,0 -1.391732,1.13001 -1.270082,1.41234 0.0019,0.004 0.306146,0.0212 0.370442,0 0.06115,-0.0202 0.10064,-0.0929 0.158759,-0.12273 0.101942,-0.0525 0.217733,-0.0649 0.317519,-0.12271 0.0789,-0.0459 0.134581,-0.1345 0.211681,-0.18423 0.239232,-0.1542 0.498983,-0.27389 0.740879,-0.42984 0.05528,-0.0356 0.321125,-0.30703 0.370442,-0.30703 0.09144,0 -0.14432,0.16747 -0.158761,0.18422 -0.100026,0.116 -0.459025,0.5927 -0.37044,0.79828 0.06747,0.15656 0.981456,-0.29308 1.11132,-0.36843 0.01369,-0.008 0.285493,-0.15997 0.264601,-0.18422 -0.01765,-0.0204 -0.03527,0.041 -0.05293,0.0615 -0.05292,0.0615 -0.105829,0.12272 -0.158761,0.18421 -0.126856,0.1472 -0.888104,0.7004 -0.476282,0.85969 0.181267,0.0701 1.136979,-0.15321 1.375923,-0.24563 0.164819,-0.0639 0.314972,-0.17075 0.476279,-0.24562 0.08971,-0.0417 0.408796,-0.21804 0.47628,-0.0615 0.03677,0.0854 -0.267339,0.48807 -0.105829,0.67548"
       id="path44" /><path
       style="display:inline;fill:#ffffff;stroke:#ffffff;stroke-width:0.776757;stroke-linecap:round;stroke-linejoin:round"
       d="m 91.24405,139.84466 c -0.08821,0 -0.2646,-0.10232 -0.2646,0 0,0.10231 0.190406,0.0553 0.2646,0 0.188861,-0.14088 0.32525,-0.3599 0.476279,-0.55265 0.02111,-0.0269 0.171543,-0.42984 0.105829,-0.42984 -0.02663,0 -0.215128,0.34372 -0.264603,0.42984 -0.105829,0.18421 -0.412185,0.36042 -0.317517,0.55265 0.08924,0.18124 0.357261,-0.0615 0.529198,-0.12273 0.1919,-0.0685 0.333151,-0.34591 0.476278,-0.49125 0.199413,-0.20245 0.648145,-0.54475 0.793805,-0.79828 0.0099,-0.017 -0.01247,-0.0468 0,-0.0615 0.02849,-0.033 0.128828,-0.0186 0.105829,0.0615 -0.07363,0.25632 -0.372277,0.72834 -0.317517,0.9825 0.05362,0.24887 0.546272,0.0244 0.635039,-0.0615 0.09582,-0.0928 0.176399,-0.2047 0.2646,-0.30703 0.01765,-0.0204 0.02795,-0.0615 0.05293,-0.0615 0.01764,0 -0.0042,0.0415 0,0.0615 0.02966,0.13769 0.0849,0.28135 0.05292,0.42983 -0.02096,0.0973 -0.128349,0.29399 0,0.36843 0.452671,0.26265 0.938046,-0.18301 1.270077,-0.49123 0.03016,-0.028 0.354203,-0.32587 0.423361,-0.24563 0.100078,0.11614 -0.105829,0.38402 -0.105829,0.49125"
       id="path45" /><path
       style="display:inline;fill:#ffffff;stroke:#ffffff;stroke-width:0.776757;stroke-linecap:round;stroke-linejoin:round"
       d="m 90.926528,136.59011 c -0.120281,0.0374 -0.249357,-0.0281 -0.370441,0 -0.422513,0.0981 -0.442674,0.21786 -0.211678,-0.18421 0.04839,-0.0842 0.08436,-0.2821 0.158757,-0.36844 0.0279,-0.0323 0.07794,-0.029 0.10583,-0.0615 0.149008,-0.004 0.01342,-0.13846 0.05293,-0.18422 0.0279,-0.0323 0.07794,-0.029 0.105829,-0.0615 0.01247,-0.0145 -0.01765,-0.0615 0,-0.0615 0.117213,0 -0.0015,0.24609 0.21168,0.18424 0.306211,-0.0889 0.652319,-0.54557 0.899639,-0.73689 0.06565,-0.0506 0.150079,-0.0658 0.211681,-0.12271 0.160363,-0.14886 -0.07217,-0.11725 0.158758,-0.18422 0.116117,-0.0337 0.265187,0.30679 0.582123,0.18422 0.08513,-0.0328 0.444031,-0.19477 0.476278,-0.30703 0.01851,-0.0645 0.05815,-0.5342 0.10585,-0.55265 0.260002,-0.10052 0.608747,-0.12286 0.846719,-0.30705 0.106928,-0.0827 0.181439,-0.25147 0.105829,-0.36844 -0.128075,-0.19815 -0.740879,-0.36318 -0.740879,-0.30703 0,0.0408 0.07084,-0.005 0.10583,0 0.106476,0.0155 0.210221,0.0615 0.317518,0.0615 0.07274,0 0.139247,-0.0538 0.211681,-0.0615 0.12298,-0.0123 0.247716,0.0158 0.370441,0 0.0392,-0.005 0.06843,-0.0468 0.10583,-0.0615 0.214144,-0.0828 -0.0048,-0.12559 -0.10583,-0.18423 -0.2521,-0.14626 0.122446,0.02 0.211679,0.0615"
       id="path46" /><path
       style="display:inline;fill:#ffffff;stroke:#ffffff;stroke-width:0.776757;stroke-linecap:round;stroke-linejoin:round"
       d="m 90.609007,135.23919 c 0.08819,-0.0204 0.282242,0.041 0.264602,-0.0615 -0.01765,-0.10231 -0.23989,0.16177 -0.264602,0.0615 -0.157532,-0.63977 0.484463,-0.53292 0.740879,-0.61407 0.107627,-0.0341 0.21025,-0.0873 0.317521,-0.12272 0.06387,-0.0211 0.06023,0.0444 0.10585,-0.0615 0.05764,-0.13381 -0.352901,-0.20457 -0.264601,-0.30703 0.02495,-0.0289 0.07056,0 0.10583,0 0.08819,0 0.176703,0.008 0.2646,0 0.08424,-0.008 0.604967,-0.11437 0.635039,-0.18422 0.0772,-0.17916 -0.370438,-0.23729 -0.370438,-0.36844 0,-0.0593 1.216423,-0.0597 1.217158,-0.0615 0.07932,-0.18407 -0.289685,-0.26016 -0.370437,-0.30702 -0.04462,-0.0258 -0.153175,-0.10454 -0.10583,-0.12272 0.06695,-0.0258 0.141828,0.0109 0.211678,0 0.154773,-0.0256 0.349451,-0.11067 0.476281,-0.18423 0.158324,-0.0919 0.12965,-0.36843 0.264602,-0.36843"
       id="path47" /></g><g
     inkscape:label="Layer 1"
     inkscape:groupmode="layer"
     id="layer1"
     style="display:inline"
     transform="translate(-58.109628,-114.01699)"><path
       id="rect1"
       style="display:inline;fill:#ff6600;stroke:#a05a2c;stroke-width:0.374702;stroke-linecap:round;stroke-linejoin:round"
       d="m 70.703374,116.85019 c -2.001871,0 -3.614192,1.58393 -3.614192,3.55049 v 5.08769 h -5.178944 c -2.001858,0 -3.613259,1.58299 -3.613259,3.54958 v 2.36699 c 0,1.96658 1.611401,3.54958 3.613259,3.54958 h 5.178944 v 5.08769 c 0,1.96659 1.612321,3.5505 3.614192,3.5505 h 2.408524 c 2.001854,0 3.613255,-1.58391 3.613255,-3.5505 v -5.08769 h 5.179886 c 2.001853,0 3.613255,-1.583 3.613255,-3.54958 v -2.36699 c 0,-1.96659 -1.611402,-3.54958 -3.613255,-3.54958 h -5.179886 v -5.08769 c 0,-1.96656 -1.611401,-3.55049 -3.613255,-3.55049 z" /></g><g
     inkscape:groupmode="layer"
     id="layer5"
     inkscape:label="Layer 5"
     style="display:inline"><text
       style="font-size:4.43519px;font-family:Courier;-inkscape-font-specification:Courier;white-space:pre;display:inline;opacity:0.864407;fill:none;stroke:#4c117c;stroke-width:0.43304;stroke-linecap:round;stroke-linejoin:round"
       x="14.820722"
       y="6.4552264"
       id="text87">&lt;</text><text
       style="font-size:4.43519px;font-family:Courier;-inkscape-font-specification:Courier;white-space:pre;display:inline;opacity:0.864407;fill:none;stroke:#7a037a;stroke-width:0.43304;stroke-linecap:round;stroke-linejoin:round;stroke-opacity:0.866667"
       x="17.482265"
       y="6.4552264"
       id="text86">s</text><text
       style="font-size:4.43519px;font-family:Courier;-inkscape-font-specification:Courier;white-space:pre;display:inline;opacity:0.864407;fill:none;stroke:#7a037a;stroke-width:0.43304;stroke-linecap:round;stroke-linejoin:round;stroke-opacity:0.866667"
       x="20.14381"
       y="6.4552264"
       id="text85">t</text><text
       style="font-size:4.43519px;font-family:Courier;-inkscape-font-specification:Courier;white-space:pre;display:inline;opacity:0.864407;fill:none;stroke:#7a037a;stroke-width:0.43304;stroke-linecap:round;stroke-linejoin:round;stroke-opacity:0.866667"
       x="22.805355"
       y="6.4552264"
       id="text84">y</text><text
       style="font-size:4.43519px;font-family:Courier;-inkscape-font-specification:Courier;white-space:pre;display:inline;opacity:0.864407;fill:none;stroke:#7a037a;stroke-width:0.43304;stroke-linecap:round;stroke-linejoin:round;stroke-opacity:0.866667"
       x="25.466902"
       y="6.4552264"
       id="text83">l</text><text
       style="font-size:4.43519px;font-family:Courier;-inkscape-font-specification:Courier;white-space:pre;display:inline;opacity:0.864407;fill:none;stroke:#7a037a;stroke-width:0.43304;stroke-linecap:round;stroke-linejoin:round;stroke-opacity:0.866667"
       x="28.128445"
       y="6.4552264"
       id="text82">e</text><text
       style="font-size:4.43519px;font-family:Courier;-inkscape-font-specification:Courier;white-space:pre;display:inline;opacity:0.864407;fill:none;stroke:#4c117c;stroke-width:0.43304;stroke-linecap:round;stroke-linejoin:round"
       x="33.451534"
       y="6.4552264"
       id="text81">s</text><text
       style="font-size:4.43519px;font-family:Courier;-inkscape-font-specification:Courier;white-space:pre;display:inline;opacity:0.864407;fill:none;stroke:#4c117c;stroke-width:0.43304;stroke-linecap:round;stroke-linejoin:round"
       x="36.113079"
       y="6.4552264"
       id="text80">r</text><text
       style="font-size:4.43519px;font-family:Courier;-inkscape-font-specification:Courier;white-space:pre;display:inline;opacity:0.864407;fill:none;stroke:#4c117c;stroke-width:0.43304;stroke-linecap:round;stroke-linejoin:round"
       x="38.774628"
       y="6.4552264"
       id="text79">c</text><text
       style="font-size:4.43519px;font-family:Courier;-inkscape-font-specification:Courier;white-space:pre;display:inline;opacity:0.864407;fill:none;stroke:#4c117c;stroke-width:0.43304;stroke-linecap:round;stroke-linejoin:round"
       x="41.436169"
       y="6.4552264"
       id="text78">=</text><text
       style="font-size:4.43519px;font-family:Courier;-inkscape-font-specification:Courier;white-space:pre;display:inline;opacity:0.864407;fill:none;stroke:#19760f;stroke-width:0.43304;stroke-linecap:round;stroke-linejoin:round;stroke-opacity:1"
       x="44.097717"
       y="6.4552264"
       id="text77">&quot;</text><text
       style="font-size:4.43519px;font-family:Courier;-inkscape-font-specification:Courier;white-space:pre;display:inline;opacity:0.864407;fill:none;stroke:#19760f;stroke-width:0.43304;stroke-linecap:round;stroke-linejoin:round;stroke-opacity:1"
       x="46.759258"
       y="6.4552264"
       id="text76">s</text><text
       style="font-size:4.43519px;font-family:Courier;-inkscape-font-specification:Courier;white-space:pre;display:inline;opacity:0.864407;fill:none;stroke:#4c117c;stroke-width:0.43304;stroke-linecap:round;stroke-linejoin:round"
       x="14.820722"
       y="11.999208"
       id="text75">&lt;</text><text
       style="font-size:4.43519px;font-family:Courier;-inkscape-font-specification:Courier;white-space:pre;display:inline;opacity:0.864407;fill:none;stroke:#7a037a;stroke-width:0.43304;stroke-linecap:round;stroke-linejoin:round;stroke-opacity:1"
       x="17.482265"
       y="11.999208"
       id="text74">b</text><text
       style="font-size:4.43519px;font-family:Courier;-inkscape-font-specification:Courier;white-space:pre;display:inline;opacity:0.864407;fill:none;stroke:#7a037a;stroke-width:0.43304;stroke-linecap:round;stroke-linejoin:round;stroke-opacity:1"
       x="20.14381"
       y="11.999208"
       id="text73">o</text><text
       style="font-size:4.43519px;font-family:Courier;-inkscape-font-specification:Courier;white-space:pre;display:inline;opacity:0.864407;fill:none;stroke:#7a037a;stroke-width:0.43304;stroke-linecap:round;stroke-linejoin:round;stroke-opacity:1"
       x="22.805355"
       y="11.999208"
       id="text72">d</text><text
       style="font-size:4.43519px;font-family:Courier;-inkscape-font-specification:Courier;white-space:pre;display:inline;opacity:0.864407;fill:none;stroke:#7a037a;stroke-width:0.43304;stroke-linecap:round;stroke-linejoin:round;stroke-opacity:1"
       x="25.466902"
       y="11.999208"
       id="text71">y</text><text
       style="font-size:4.43519px;font-family:Courier;-inkscape-font-specification:Courier;white-space:pre;display:inline;opacity:0.864407;fill:none;stroke:#4c117c;stroke-width:0.43304;stroke-linecap:round;stroke-linejoin:round"
       x="30.789991"
       y="11.999208"
       id="text70">o</text><text
       style="font-size:4.43519px;font-family:Courier;-inkscape-font-specification:Courier;white-space:pre;display:inline;opacity:0.864407;fill:none;stroke:#4c117c;stroke-width:0.43304;stroke-linecap:round;stroke-linejoin:round"
       x="33.451534"
       y="11.999208"
       id="text69">n</text><text
       style="font-size:4.43519px;font-family:Courier;-inkscape-font-specification:Courier;white-space:pre;display:inline;opacity:0.864407;fill:none;stroke:#4c117c;stroke-width:0.43304;stroke-linecap:round;stroke-linejoin:round"
       x="36.113079"
       y="11.999208"
       id="text68">l</text><text
       style="font-size:4.43519px;font-family:Courier;-inkscape-font-specification:Courier;white-space:pre;display:inline;opacity:0.864407;fill:none;stroke:#4c117c;stroke-width:0.43304;stroke-linecap:round;stroke-linejoin:round"
       x="38.774628"
       y="11.999208"
       id="text67">o</text><text
       style="font-size:4.43519px;font-family:Courier;-inkscape-font-specification:Courier;white-space:pre;display:inline;opacity:0.864407;fill:none;stroke:#4c117c;stroke-width:0.43304;stroke-linecap:round;stroke-linejoin:round"
       x="41.436169"
       y="11.999208"
       id="text66">a</text><text
       style="font-size:4.43519px;font-family:Courier;-inkscape-font-specification:Courier;white-space:pre;display:inline;opacity:0.864407;fill:none;stroke:#4c117c;stroke-width:0.43304;stroke-linecap:round;stroke-linejoin:round"
       x="44.097717"
       y="11.999208"
       id="text65">d</text><text
       style="font-size:4.43519px;font-family:Courier;-inkscape-font-specification:Courier;white-space:pre;display:inline;opacity:0.864407;fill:none;stroke:#4c117c;stroke-width:0.43304;stroke-linecap:round;stroke-linejoin:round"
       x="46.759258"
       y="11.999208"
       id="text64">=</text><text
       style="font-size:4.43519px;font-family:Courier;-inkscape-font-specification:Courier;white-space:pre;display:inline;opacity:0.864407;fill:none;stroke:#4c117c;stroke-width:0.43304;stroke-linecap:round;stroke-linejoin:round"
       x="22.805355"
       y="17.54319"
       id="text63">&lt;</text><text
       style="font-size:4.43519px;font-family:Courier;-inkscape-font-specification:Courier;white-space:pre;display:inline;opacity:0.864407;fill:none;stroke:#7a037a;stroke-width:0.43304;stroke-linecap:round;stroke-linejoin:round;stroke-opacity:0.866667"
       x="25.466902"
       y="17.54319"
       id="text62">d</text><text
       style="font-size:4.43519px;font-family:Courier;-inkscape-font-specification:Courier;white-space:pre;display:inline;opacity:0.864407;fill:none;stroke:#7a037a;stroke-width:0.43304;stroke-linecap:round;stroke-linejoin:round;stroke-opacity:0.866667"
       x="28.128445"
       y="17.54319"
       id="text61">i</text><text
       style="font-size:4.43519px;font-family:Courier;-inkscape-font-specification:Courier;white-space:pre;display:inline;opacity:0.864407;fill:none;stroke:#7a037a;stroke-width:0.43304;stroke-linecap:round;stroke-linejoin:round;stroke-opacity:0.866667"
       x="30.789991"
       y="17.54319"
       id="text60">v</text><text
       style="font-size:4.43519px;font-family:Courier;-inkscape-font-specification:Courier;white-space:pre;display:inline;opacity:0.864407;fill:none;stroke:#4c117c;stroke-width:0.43304;stroke-linecap:round;stroke-linejoin:round"
       x="36.113079"
       y="17.54319"
       id="text59">i</text><text
       style="font-size:4.43519px;font-family:Courier;-inkscape-font-specification:Courier;white-space:pre;display:inline;opacity:0.864407;fill:none;stroke:#4c117c;stroke-width:0.43304;stroke-linecap:round;stroke-linejoin:round"
       x="38.774628"
       y="17.54319"
       id="text58">d</text><text
       style="font-size:4.43519px;font-family:Courier;-inkscape-font-specification:Courier;white-space:pre;display:inline;opacity:0.864407;fill:none;stroke:#4c117c;stroke-width:0.43304;stroke-linecap:round;stroke-linejoin:round"
       x="41.436169"
       y="17.54319"
       id="text57">=</text><text
       style="font-size:4.43519px;font-family:Courier;-inkscape-font-specification:Courier;white-space:pre;display:inline;opacity:0.864407;fill:none;stroke:#19760f;stroke-width:0.43304;stroke-linecap:round;stroke-linejoin:round;stroke-opacity:1"
       x="44.097717"
       y="17.54319"
       id="text56">&quot;</text><text
       style="font-size:4.43519px;font-family:Courier;-inkscape-font-specification:Courier;white-space:pre;display:inline;opacity:0.864407;fill:none;stroke:#19760f;stroke-width:0.43304;stroke-linecap:round;stroke-linejoin:round;stroke-opacity:1"
       x="46.759258"
       y="17.54319"
       id="text55">m</text><text
       style="font-size:4.43519px;font-family:Courier;-inkscape-font-specification:Courier;white-space:pre;display:inline;opacity:0.864407;fill:none;stroke:#4c117c;stroke-width:0.43304;stroke-linecap:round;stroke-linejoin:round"
       x="28.128445"
       y="23.087175"
       id="text54">&lt;</text><text
       style="font-size:4.43519px;font-family:Courier;-inkscape-font-specification:Courier;white-space:pre;display:inline;opacity:0.864407;fill:none;stroke:#7a037a;stroke-width:0.43304;stroke-linecap:round;stroke-linejoin:round;stroke-opacity:0.752941"
       x="30.789991"
       y="23.087175"
       id="text53">p</text><text
       style="font-size:4.43519px;font-family:Courier;-inkscape-font-specification:Courier;white-space:pre;display:inline;opacity:0.864407;fill:none;stroke:#4c117c;stroke-width:0.43304;stroke-linecap:round;stroke-linejoin:round"
       x="36.113079"
       y="23.087175"
       id="text52">c</text><text
       style="font-size:4.43519px;font-family:Courier;-inkscape-font-specification:Courier;white-space:pre;display:inline;opacity:0.864407;fill:none;stroke:#4c117c;stroke-width:0.43304;stroke-linecap:round;stroke-linejoin:round"
       x="38.774628"
       y="23.087175"
       id="text51">l</text><text
       style="font-size:4.43519px;font-family:Courier;-inkscape-font-specification:Courier;white-space:pre;display:inline;opacity:0.864407;fill:none;stroke:#4c117c;stroke-width:0.43304;stroke-linecap:round;stroke-linejoin:round"
       x="41.436169"
       y="23.087175"
       id="text50">a</text><text
       style="font-size:4.43519px;font-family:Courier;-inkscape-font-specification:Courier;white-space:pre;display:inline;opacity:0.864407;fill:none;stroke:#4c117c;stroke-width:0.43304;stroke-linecap:round;stroke-linejoin:round"
       x="44.097717"
       y="23.087175"
       id="text49">s</text><text
       style="font-size:4.43519px;font-family:Courier;-inkscape-font-specification:Courier;white-space:pre;display:inline;opacity:0.864407;fill:none;stroke:#4c117c;stroke-width:0.43304;stroke-linecap:round;stroke-linejoin:round"
       x="46.759258"
       y="23.087175"
       id="text48">s</text></g></svg>
